<?xml version="1.0" encoding="UTF-8" standalone="no"?>
<!-- Created with Inkscape (http://www.inkscape.org/) -->

<svg
   xmlns:dc="http://purl.org/dc/elements/1.1/"
   xmlns:cc="http://creativecommons.org/ns#"
   xmlns:rdf="http://www.w3.org/1999/02/22-rdf-syntax-ns#"
   xmlns:svg="http://www.w3.org/2000/svg"
   xmlns="http://www.w3.org/2000/svg"
   xmlns:sodipodi="http://sodipodi.sourceforge.net/DTD/sodipodi-0.dtd"
   xmlns:inkscape="http://www.inkscape.org/namespaces/inkscape"
   width="744.09448819"
   height="1052.3622047"
   id="svg2"
   version="1.1"
   inkscape:version="0.48.0 r9654"
   sodipodi:docname="coverings.pdf">
  <defs
     id="defs4" />
  <sodipodi:namedview
     id="base"
     pagecolor="#ffffff"
     bordercolor="#666666"
     borderopacity="1.0"
     inkscape:pageopacity="0.0"
     inkscape:pageshadow="2"
     inkscape:zoom="1.1039267"
     inkscape:cx="442.87377"
     inkscape:cy="919.01923"
     inkscape:document-units="px"
     inkscape:current-layer="layer1"
     showgrid="true"
     inkscape:snap-global="false"
     inkscape:window-width="1440"
     inkscape:window-height="874"
     inkscape:window-x="0"
     inkscape:window-y="0"
     inkscape:window-maximized="0">
    <inkscape:grid
       type="xygrid"
       id="grid2985" />
  </sodipodi:namedview>
  <metadata
     id="metadata7">
    <rdf:RDF>
      <cc:Work
         rdf:about="">
        <dc:format>image/svg+xml</dc:format>
        <dc:type
           rdf:resource="http://purl.org/dc/dcmitype/StillImage" />
        <dc:title></dc:title>
      </cc:Work>
    </rdf:RDF>
  </metadata>
  <g
     inkscape:label="Layer 1"
     inkscape:groupmode="layer"
     id="layer1">
    <path
       sodipodi:type="arc"
       style="fill:#000000;fill-rule:evenodd;stroke:#000000;stroke-width:1px;stroke-linecap:butt;stroke-linejoin:miter;stroke-opacity:1"
       id="path2987"
       sodipodi:cx="80"
       sodipodi:cy="462.36218"
       sodipodi:rx="10"
       sodipodi:ry="10"
       d="m 90,462.36218 a 10,10 0 1 1 -20,0 10,10 0 1 1 20,0 z"
       transform="translate(-460,-89.999994)" />
    <path
       transform="translate(-330,-89.999994)"
       sodipodi:type="arc"
       style="fill:#000000;fill-rule:evenodd;stroke:#000000;stroke-width:1px;stroke-linecap:butt;stroke-linejoin:miter;stroke-opacity:1"
       id="path2987-8"
       sodipodi:cx="80"
       sodipodi:cy="462.36218"
       sodipodi:rx="10"
       sodipodi:ry="10"
       d="m 90,462.36218 a 10,10 0 1 1 -20,0 10,10 0 1 1 20,0 z" />
    <path
       style="fill:none;stroke:#000000;stroke-width:6;stroke-linecap:butt;stroke-linejoin:miter;stroke-miterlimit:4;stroke-opacity:1;stroke-dasharray:none"
       d="m -380,372.36218 c 0,0 60,-65 130,0"
       id="path3024"
       inkscape:connector-curvature="0" />
    <text
       xml:space="preserve"
       style="font-size:32px;font-style:italic;font-variant:normal;font-weight:normal;font-stretch:normal;line-height:125%;letter-spacing:0px;word-spacing:0px;fill:#000000;fill-opacity:1;stroke:none;font-family:Times New Roman;-inkscape-font-specification:'Times New Roman, Italic'"
       x="73.06749"
       y="446.44196"
       id="text3794"
       sodipodi:linespacing="125%"
       inkscape:transform-center-x="6.5"><tspan
         sodipodi:role="line"
         id="tspan3796"
         x="73.06749"
         y="446.44196" /></text>
    <text
       xml:space="preserve"
       style="font-size:32px;font-style:italic;font-variant:normal;font-weight:normal;font-stretch:normal;line-height:125%;letter-spacing:0px;word-spacing:0px;fill:#000000;fill-opacity:1;stroke:none;font-family:Times New Roman;-inkscape-font-specification:'Times New Roman, Italic'"
       x="201.83374"
       y="446.98636"
       id="text3794-5"
       sodipodi:linespacing="125%"><tspan
         sodipodi:role="line"
         id="tspan3796-0"
         x="201.83374"
         y="446.98636"
         style="font-size:32px;font-style:italic;-inkscape-font-specification:'Times New Roman, Italic'" /></text>
    <path
       transform="translate(-330,-89.999994)"
       sodipodi:type="arc"
       style="fill:#000000;fill-rule:evenodd;stroke:#000000;stroke-width:1px;stroke-linecap:butt;stroke-linejoin:miter;stroke-opacity:1"
       id="path2987-9"
       sodipodi:cx="80"
       sodipodi:cy="462.36218"
       sodipodi:rx="10"
       sodipodi:ry="10"
       d="m 90,462.36218 a 10,10 0 1 1 -20,0 10,10 0 1 1 20,0 z" />
    <path
       transform="translate(-200,-89.999994)"
       sodipodi:type="arc"
       style="fill:#000000;fill-rule:evenodd;stroke:#000000;stroke-width:1px;stroke-linecap:butt;stroke-linejoin:miter;stroke-opacity:1"
       id="path2987-8-7"
       sodipodi:cx="80"
       sodipodi:cy="462.36218"
       sodipodi:rx="10"
       sodipodi:ry="10"
       d="m 90,462.36218 a 10,10 0 1 1 -20,0 10,10 0 1 1 20,0 z" />
    <path
       transform="translate(-200,-89.999994)"
       sodipodi:type="arc"
       style="fill:#000000;fill-rule:evenodd;stroke:#000000;stroke-width:1px;stroke-linecap:butt;stroke-linejoin:miter;stroke-opacity:1"
       id="path2987-4"
       sodipodi:cx="80"
       sodipodi:cy="462.36218"
       sodipodi:rx="10"
       sodipodi:ry="10"
       d="m 90,462.36218 a 10,10 0 1 1 -20,0 10,10 0 1 1 20,0 z" />
    <path
       transform="translate(-70,-89.999994)"
       sodipodi:type="arc"
       style="fill:#000000;fill-rule:evenodd;stroke:#000000;stroke-width:1px;stroke-linecap:butt;stroke-linejoin:miter;stroke-opacity:1"
       id="path2987-8-5"
       sodipodi:cx="80"
       sodipodi:cy="462.36218"
       sodipodi:rx="10"
       sodipodi:ry="10"
       d="m 90,462.36218 a 10,10 0 1 1 -20,0 10,10 0 1 1 20,0 z" />
    <path
       transform="matrix(1.2767283e-4,1.5,-1.5,1.2767283e-4,313.53305,252.3023)"
       sodipodi:type="arc"
       style="fill:#000000;fill-rule:evenodd;stroke:#000000;stroke-width:1px;stroke-linecap:butt;stroke-linejoin:miter;stroke-opacity:1"
       id="path2987-4-6"
       sodipodi:cx="80"
       sodipodi:cy="462.36218"
       sodipodi:rx="10"
       sodipodi:ry="10"
       d="m 90,462.36218 a 10,10 0 1 1 -20,0 10,10 0 1 1 20,0 z" />
    <path
       transform="matrix(1.2767283e-4,1.5,-1.5,1.2767283e-4,313.54411,382.3023)"
       sodipodi:type="arc"
       style="fill:#000000;fill-rule:evenodd;stroke:#000000;stroke-width:1px;stroke-linecap:butt;stroke-linejoin:miter;stroke-opacity:1"
       id="path2987-8-5-2"
       sodipodi:cx="80"
       sodipodi:cy="462.36218"
       sodipodi:rx="10"
       sodipodi:ry="10"
       d="m 90,462.36218 a 10,10 0 1 1 -20,0 10,10 0 1 1 20,0 z" />
    <path
       transform="matrix(1.2767283e-4,1.5,-1.5,1.2767283e-4,443.53306,252.304)"
       sodipodi:type="arc"
       style="fill:#000000;fill-rule:evenodd;stroke:#000000;stroke-width:1px;stroke-linecap:butt;stroke-linejoin:miter;stroke-opacity:1"
       id="path2987-4-6-6"
       sodipodi:cx="80"
       sodipodi:cy="462.36218"
       sodipodi:rx="10"
       sodipodi:ry="10"
       d="m 90,462.36218 a 10,10 0 1 1 -20,0 10,10 0 1 1 20,0 z" />
    <path
       transform="matrix(1.2767283e-4,1.5,-1.5,1.2767283e-4,443.54412,382.304)"
       sodipodi:type="arc"
       style="fill:#000000;fill-rule:evenodd;stroke:#000000;stroke-width:1px;stroke-linecap:butt;stroke-linejoin:miter;stroke-opacity:1"
       id="path2987-8-5-2-0"
       sodipodi:cx="80"
       sodipodi:cy="462.36218"
       sodipodi:rx="10"
       sodipodi:ry="10"
       d="m 90,462.36218 a 10,10 0 1 1 -20,0 10,10 0 1 1 20,0 z" />
    <path
       transform="matrix(0,1,-1,0,342.36218,552.36218)"
       sodipodi:type="arc"
       style="fill:#000000;fill-rule:evenodd;stroke:#000000;stroke-width:1px;stroke-linecap:butt;stroke-linejoin:miter;stroke-opacity:1"
       id="path2987-4-4"
       sodipodi:cx="80"
       sodipodi:cy="462.36218"
       sodipodi:rx="10"
       sodipodi:ry="10"
       d="m 90,462.36218 a 10,10 0 1 1 -20,0 10,10 0 1 1 20,0 z" />
    <path
       transform="matrix(0,1,-1,0,342.36218,682.36218)"
       sodipodi:type="arc"
       style="fill:#000000;fill-rule:evenodd;stroke:#000000;stroke-width:1px;stroke-linecap:butt;stroke-linejoin:miter;stroke-opacity:1"
       id="path2987-8-5-5"
       sodipodi:cx="80"
       sodipodi:cy="462.36218"
       sodipodi:rx="10"
       sodipodi:ry="10"
       d="m 90,462.36218 a 10,10 0 1 1 -20,0 10,10 0 1 1 20,0 z" />
    <path
       transform="matrix(-1.5,1.2767283e-4,-1.2767283e-4,-1.5,0.05987703,1065.8952)"
       sodipodi:type="arc"
       style="fill:#000000;fill-rule:evenodd;stroke:#000000;stroke-width:1px;stroke-linecap:butt;stroke-linejoin:miter;stroke-opacity:1"
       id="path2987-4-6-8"
       sodipodi:cx="80"
       sodipodi:cy="462.36218"
       sodipodi:rx="10"
       sodipodi:ry="10"
       d="m 90,462.36218 a 10,10 0 1 1 -20,0 10,10 0 1 1 20,0 z" />
    <path
       transform="matrix(-1.5,1.2767283e-4,-1.2767283e-4,-1.5,0.05817703,1195.8953)"
       sodipodi:type="arc"
       style="fill:#000000;fill-rule:evenodd;stroke:#000000;stroke-width:1px;stroke-linecap:butt;stroke-linejoin:miter;stroke-opacity:1"
       id="path2987-4-6-6-1"
       sodipodi:cx="80"
       sodipodi:cy="462.36218"
       sodipodi:rx="10"
       sodipodi:ry="10"
       d="m 90,462.36218 a 10,10 0 1 1 -20,0 10,10 0 1 1 20,0 z" />
    <path
       transform="matrix(0,1.5,-1.5,0,703.54242,512.36304)"
       sodipodi:type="arc"
       style="fill:#000000;fill-rule:evenodd;stroke:#000000;stroke-width:1px;stroke-linecap:butt;stroke-linejoin:miter;stroke-opacity:1"
       id="path2987-4-4-8"
       sodipodi:cx="80"
       sodipodi:cy="462.36218"
       sodipodi:rx="10"
       sodipodi:ry="10"
       d="m 90,462.36218 a 10,10 0 1 1 -20,0 10,10 0 1 1 20,0 z" />
    <path
       transform="matrix(0,1.5,-1.5,0,703.54242,642.36304)"
       sodipodi:type="arc"
       style="fill:#000000;fill-rule:evenodd;stroke:#000000;stroke-width:1px;stroke-linecap:butt;stroke-linejoin:miter;stroke-opacity:1"
       id="path2987-8-5-5-5"
       sodipodi:cx="80"
       sodipodi:cy="462.36218"
       sodipodi:rx="10"
       sodipodi:ry="10"
       d="m 90,462.36218 a 10,10 0 1 1 -20,0 10,10 0 1 1 20,0 z" />
    <path
       transform="matrix(-1.5,1.2767283e-4,-1.2767283e-4,-1.5,130.05902,1065.8961)"
       sodipodi:type="arc"
       style="fill:#000000;fill-rule:evenodd;stroke:#000000;stroke-width:1px;stroke-linecap:butt;stroke-linejoin:miter;stroke-opacity:1"
       id="path2987-4-6-8-2"
       sodipodi:cx="80"
       sodipodi:cy="462.36218"
       sodipodi:rx="10"
       sodipodi:ry="10"
       d="m 90,462.36218 a 10,10 0 1 1 -20,0 10,10 0 1 1 20,0 z" />
    <path
       transform="matrix(-1.5,1.2767283e-4,-1.2767283e-4,-1.5,130.05732,1195.8962)"
       sodipodi:type="arc"
       style="fill:#000000;fill-rule:evenodd;stroke:#000000;stroke-width:1px;stroke-linecap:butt;stroke-linejoin:miter;stroke-opacity:1"
       id="path2987-4-6-6-1-5"
       sodipodi:cx="80"
       sodipodi:cy="462.36218"
       sodipodi:rx="10"
       sodipodi:ry="10"
       d="m 90,462.36218 a 10,10 0 1 1 -20,0 10,10 0 1 1 20,0 z" />
    <path
       transform="matrix(1.2767283e-4,1.5,-1.5,1.2767283e-4,313.5322,512.30315)"
       sodipodi:type="arc"
       style="fill:#000000;fill-rule:evenodd;stroke:#000000;stroke-width:1px;stroke-linecap:butt;stroke-linejoin:miter;stroke-opacity:1"
       id="path2987-8-5-2-2"
       sodipodi:cx="80"
       sodipodi:cy="462.36218"
       sodipodi:rx="10"
       sodipodi:ry="10"
       d="m 90,462.36218 a 10,10 0 1 1 -20,0 10,10 0 1 1 20,0 z" />
    <path
       transform="matrix(1.2767283e-4,1.5,-1.5,1.2767283e-4,443.53221,512.30485)"
       sodipodi:type="arc"
       style="fill:#000000;fill-rule:evenodd;stroke:#000000;stroke-width:1px;stroke-linecap:butt;stroke-linejoin:miter;stroke-opacity:1"
       id="path2987-8-5-2-0-0"
       sodipodi:cx="80"
       sodipodi:cy="462.36218"
       sodipodi:rx="10"
       sodipodi:ry="10"
       d="m 90,462.36218 a 10,10 0 1 1 -20,0 10,10 0 1 1 20,0 z" />
    <path
       transform="matrix(-1.5,1.2767283e-4,-1.2767283e-4,-1.5,0.04626703,1325.8961)"
       sodipodi:type="arc"
       style="fill:#000000;fill-rule:evenodd;stroke:#000000;stroke-width:1px;stroke-linecap:butt;stroke-linejoin:miter;stroke-opacity:1"
       id="path2987-4-6-6-1-2"
       sodipodi:cx="80"
       sodipodi:cy="462.36218"
       sodipodi:rx="10"
       sodipodi:ry="10"
       d="m 90,462.36218 a 10,10 0 1 1 -20,0 10,10 0 1 1 20,0 z" />
    <path
       transform="matrix(1.2767283e-4,1.5,-1.5,1.2767283e-4,313.53305,642.304)"
       sodipodi:type="arc"
       style="fill:#000000;fill-rule:evenodd;stroke:#000000;stroke-width:1px;stroke-linecap:butt;stroke-linejoin:miter;stroke-opacity:1"
       id="path2987-8-5-2-01"
       sodipodi:cx="80"
       sodipodi:cy="462.36218"
       sodipodi:rx="10"
       sodipodi:ry="10"
       d="m 90,462.36218 a 10,10 0 1 1 -20,0 10,10 0 1 1 20,0 z" />
    <path
       transform="matrix(1.2767283e-4,1.5,-1.5,1.2767283e-4,443.53306,642.3057)"
       sodipodi:type="arc"
       style="fill:#000000;fill-rule:evenodd;stroke:#000000;stroke-width:1px;stroke-linecap:butt;stroke-linejoin:miter;stroke-opacity:1"
       id="path2987-8-5-2-0-05"
       sodipodi:cx="80"
       sodipodi:cy="462.36218"
       sodipodi:rx="10"
       sodipodi:ry="10"
       d="m 90,462.36218 a 10,10 0 1 1 -20,0 10,10 0 1 1 20,0 z" />
    <path
       transform="matrix(-1.5,1.2767283e-4,-1.2767283e-4,-1.5,0.04711703,1455.897)"
       sodipodi:type="arc"
       style="fill:#000000;fill-rule:evenodd;stroke:#000000;stroke-width:1px;stroke-linecap:butt;stroke-linejoin:miter;stroke-opacity:1"
       id="path2987-4-6-6-1-0"
       sodipodi:cx="80"
       sodipodi:cy="462.36218"
       sodipodi:rx="10"
       sodipodi:ry="10"
       d="m 90,462.36218 a 10,10 0 1 1 -20,0 10,10 0 1 1 20,0 z" />
    <path
       style="fill:none;stroke:#000000;stroke-width:6;stroke-linecap:butt;stroke-linejoin:miter;stroke-miterlimit:4;stroke-opacity:1;stroke-dasharray:none"
       d="m -120,372.36218 c 0,0 100,5 130,130"
       id="path4054"
       inkscape:connector-curvature="0"
       sodipodi:nodetypes="cc" />
    <path
       style="fill:none;stroke:#000000;stroke-width:6;stroke-linecap:round;stroke-linejoin:miter;stroke-miterlimit:4;stroke-opacity:1;stroke-dasharray:none"
       d="m -380,762.36218 c 0,0 190,75 390,0"
       id="path4056"
       inkscape:connector-curvature="0" />
    <path
       style="fill:none;stroke:#000000;stroke-width:6;stroke-linecap:butt;stroke-linejoin:miter;stroke-miterlimit:4;stroke-opacity:1;stroke-dasharray:none"
       d="m -380,632.36218 c 0,0 120,65 260,0"
       id="path4058"
       inkscape:connector-curvature="0" />
    <path
       style="fill:none;stroke:#000000;stroke-width:6;stroke-linecap:butt;stroke-linejoin:miter;stroke-miterlimit:4;stroke-opacity:1;stroke-dasharray:none"
       d="m -250,632.36218 c 0,0 -34.17178,66.19632 0,130"
       id="path4060"
       inkscape:connector-curvature="0" />
    <path
       style="fill:none;stroke:#000000;stroke-width:6;stroke-miterlimit:4;stroke-dasharray:none"
       d="m -120,762.36218 c 0,0 47.36196,-124.29448 0,-260"
       id="path4062"
       inkscape:connector-curvature="0" />
    <path
       style="color:#000000;fill:none;stroke:#000000;stroke-width:6;stroke-linecap:butt;stroke-linejoin:miter;stroke-miterlimit:4;stroke-opacity:1;stroke-dasharray:none;stroke-dashoffset:0;marker:none;visibility:visible;display:inline;overflow:visible;enable-background:accumulate"
       d="m 10,632.36218 -260,-130"
       id="path4064"
       inkscape:connector-curvature="0" />
    <path
       style="color:#000000;fill:none;stroke:#000000;stroke-width:6;stroke-linecap:butt;stroke-linejoin:miter;stroke-miterlimit:4;stroke-opacity:1;stroke-dasharray:none;stroke-dashoffset:0;marker:none;visibility:visible;display:inline;overflow:visible;enable-background:accumulate"
       d="m -380,502.36218 c 0,0 139.1411,-93.00613 390,-130"
       id="path4066"
       inkscape:connector-curvature="0" />
    <path
       sodipodi:type="arc"
       style="fill:#550000;fill-rule:evenodd;stroke:#550000;stroke-width:1px;stroke-linecap:butt;stroke-linejoin:miter;stroke-opacity:1"
       id="path2987-48"
       sodipodi:cx="80"
       sodipodi:cy="462.36218"
       sodipodi:rx="10"
       sodipodi:ry="10"
       d="m 90,462.36218 a 10,10 0 1 1 -20,0 10,10 0 1 1 20,0 z"
       transform="matrix(1.5,0,0,1.5,90.00085,-321.18195)" />
    <path
       transform="matrix(1.5,0,0,1.5,220.00085,-321.18195)"
       sodipodi:type="arc"
       style="fill:#0000ff;fill-rule:evenodd;stroke:#0000ff;stroke-width:1px;stroke-linecap:butt;stroke-linejoin:miter;stroke-opacity:1"
       id="path2987-8-1"
       sodipodi:cx="80"
       sodipodi:cy="462.36218"
       sodipodi:rx="10"
       sodipodi:ry="10"
       d="m 90,462.36218 a 10,10 0 1 1 -20,0 10,10 0 1 1 20,0 z" />
    <path
       transform="matrix(1.5,0,0,1.5,350.00085,-321.18195)"
       sodipodi:type="arc"
       style="fill:#550000;fill-rule:evenodd;stroke:#550000;stroke-width:1px;stroke-linecap:butt;stroke-linejoin:miter;stroke-opacity:1"
       id="path2987-8-7-2"
       sodipodi:cx="80"
       sodipodi:cy="462.36218"
       sodipodi:rx="10"
       sodipodi:ry="10"
       d="m 90,462.36218 a 10,10 0 1 1 -20,0 10,10 0 1 1 20,0 z" />
    <path
       transform="matrix(1.5,0,0,1.5,480.00085,-321.18195)"
       sodipodi:type="arc"
       style="fill:#0000ff;fill-rule:evenodd;stroke:#0000ff;stroke-width:1px;stroke-linecap:butt;stroke-linejoin:miter;stroke-opacity:1"
       id="path2987-8-5-4"
       sodipodi:cx="80"
       sodipodi:cy="462.36218"
       sodipodi:rx="10"
       sodipodi:ry="10"
       d="m 90,462.36218 a 10,10 0 1 1 -20,0 10,10 0 1 1 20,0 z" />
    <path
       transform="matrix(1.2767283e-4,1.5,-1.5,1.2767283e-4,903.54496,382.30144)"
       sodipodi:type="arc"
       style="fill:#0000ff;fill-rule:evenodd;stroke:#0000ff;stroke-width:1px;stroke-linecap:butt;stroke-linejoin:miter;stroke-opacity:1"
       id="path2987-8-5-2-5"
       sodipodi:cx="80"
       sodipodi:cy="462.36218"
       sodipodi:rx="10"
       sodipodi:ry="10"
       d="m 90,462.36218 a 10,10 0 1 1 -20,0 10,10 0 1 1 20,0 z" />
    <path
       transform="matrix(1.2767283e-4,1.5,-1.5,1.2767283e-4,1033.545,382.30314)"
       sodipodi:type="arc"
       style="fill:#800000;fill-rule:evenodd;stroke:#800000;stroke-width:1px;stroke-linecap:butt;stroke-linejoin:miter;stroke-opacity:1"
       id="path2987-8-5-2-0-2"
       sodipodi:cx="80"
       sodipodi:cy="462.36218"
       sodipodi:rx="10"
       sodipodi:ry="10"
       d="m 90,462.36218 a 10,10 0 1 1 -20,0 10,10 0 1 1 20,0 z" />
    <path
       transform="matrix(0,1.5,-1.5,0,1163.5441,512.36132)"
       sodipodi:type="arc"
       style="fill:#550000;fill-rule:evenodd;stroke:#550000;stroke-width:1px;stroke-linecap:butt;stroke-linejoin:miter;stroke-opacity:1"
       id="path2987-4-4-0"
       sodipodi:cx="80"
       sodipodi:cy="462.36218"
       sodipodi:rx="10"
       sodipodi:ry="10"
       d="m 90,462.36218 a 10,10 0 1 1 -20,0 10,10 0 1 1 20,0 z" />
    <path
       transform="matrix(0,1.5,-1.5,0,1163.5441,642.36132)"
       sodipodi:type="arc"
       style="fill:#0000ff;fill-rule:evenodd;stroke:#0000ff;stroke-width:1px;stroke-linecap:butt;stroke-linejoin:miter;stroke-opacity:1"
       id="path2987-8-5-5-6"
       sodipodi:cx="80"
       sodipodi:cy="462.36218"
       sodipodi:rx="10"
       sodipodi:ry="10"
       d="m 90,462.36218 a 10,10 0 1 1 -20,0 10,10 0 1 1 20,0 z" />
    <path
       transform="matrix(-1.5,1.2767283e-4,-1.2767283e-4,-1.5,590.05903,1195.8944)"
       sodipodi:type="arc"
       style="fill:#0000ff;fill-rule:evenodd;stroke:#0000ff;stroke-width:1px;stroke-linecap:butt;stroke-linejoin:miter;stroke-opacity:1"
       id="path2987-4-6-6-1-6"
       sodipodi:cx="80"
       sodipodi:cy="462.36218"
       sodipodi:rx="10"
       sodipodi:ry="10"
       d="m 90,462.36218 a 10,10 0 1 1 -20,0 10,10 0 1 1 20,0 z" />
    <path
       transform="matrix(0,1.5,-1.5,0,1293.5433,512.36218)"
       sodipodi:type="arc"
       style="fill:#0000ff;fill-rule:evenodd;stroke:#0000ff;stroke-width:1px;stroke-linecap:butt;stroke-linejoin:miter;stroke-opacity:1"
       id="path2987-4-4-8-0"
       sodipodi:cx="80"
       sodipodi:cy="462.36218"
       sodipodi:rx="10"
       sodipodi:ry="10"
       d="m 90,462.36218 a 10,10 0 1 1 -20,0 10,10 0 1 1 20,0 z" />
    <path
       transform="matrix(0,1.5,-1.5,0,1293.5433,642.36218)"
       sodipodi:type="arc"
       style="fill:#800000;fill-rule:evenodd;stroke:#800000;stroke-width:1px;stroke-linecap:butt;stroke-linejoin:miter;stroke-opacity:1"
       id="path2987-8-5-5-5-6"
       sodipodi:cx="80"
       sodipodi:cy="462.36218"
       sodipodi:rx="10"
       sodipodi:ry="10"
       d="m 90,462.36218 a 10,10 0 1 1 -20,0 10,10 0 1 1 20,0 z" />
    <path
       transform="matrix(-1.5,1.2767283e-4,-1.2767283e-4,-1.5,720.05817,1195.8953)"
       sodipodi:type="arc"
       style="fill:#800000;fill-rule:evenodd;stroke:#800000;stroke-width:1px;stroke-linecap:butt;stroke-linejoin:miter;stroke-opacity:1"
       id="path2987-4-6-6-1-5-3"
       sodipodi:cx="80"
       sodipodi:cy="462.36218"
       sodipodi:rx="10"
       sodipodi:ry="10"
       d="m 90,462.36218 a 10,10 0 1 1 -20,0 10,10 0 1 1 20,0 z" />
    <path
       transform="matrix(1.2767283e-4,1.5,-1.5,1.2767283e-4,903.53305,512.30229)"
       sodipodi:type="arc"
       style="fill:#800000;fill-rule:evenodd;stroke:#800000;stroke-width:1px;stroke-linecap:butt;stroke-linejoin:miter;stroke-opacity:1"
       id="path2987-8-5-2-2-1"
       sodipodi:cx="80"
       sodipodi:cy="462.36218"
       sodipodi:rx="10"
       sodipodi:ry="10"
       d="m 90,462.36218 a 10,10 0 1 1 -20,0 10,10 0 1 1 20,0 z" />
    <path
       transform="matrix(1.2767283e-4,1.5,-1.5,1.2767283e-4,1033.5331,512.30399)"
       sodipodi:type="arc"
       style="fill:#0000ff;fill-rule:evenodd;stroke:#0000ff;stroke-width:1px;stroke-linecap:butt;stroke-linejoin:miter;stroke-opacity:1"
       id="path2987-8-5-2-0-0-4"
       sodipodi:cx="80"
       sodipodi:cy="462.36218"
       sodipodi:rx="10"
       sodipodi:ry="10"
       d="m 90,462.36218 a 10,10 0 1 1 -20,0 10,10 0 1 1 20,0 z" />
    <path
       transform="matrix(1.2767283e-4,1.5,-1.5,1.2767283e-4,903.5339,642.30314)"
       sodipodi:type="arc"
       style="fill:#0000ff;fill-rule:evenodd;stroke:#0000ff;stroke-width:1px;stroke-linecap:butt;stroke-linejoin:miter;stroke-opacity:1"
       id="path2987-8-5-2-01-7"
       sodipodi:cx="80"
       sodipodi:cy="462.36218"
       sodipodi:rx="10"
       sodipodi:ry="10"
       d="m 90,462.36218 a 10,10 0 1 1 -20,0 10,10 0 1 1 20,0 z" />
    <path
       transform="matrix(1.2767283e-4,1.5,-1.5,1.2767283e-4,1033.5339,642.30484)"
       sodipodi:type="arc"
       style="fill:#800000;fill-rule:evenodd;stroke:#800000;stroke-width:1px;stroke-linecap:butt;stroke-linejoin:miter;stroke-opacity:1"
       id="path2987-8-5-2-0-05-2"
       sodipodi:cx="80"
       sodipodi:cy="462.36218"
       sodipodi:rx="10"
       sodipodi:ry="10"
       d="m 90,462.36218 a 10,10 0 1 1 -20,0 10,10 0 1 1 20,0 z" />
    <path
       style="fill:none;stroke:#000000;stroke-width:6;stroke-linecap:round;stroke-linejoin:miter;stroke-miterlimit:4;stroke-opacity:1;stroke-dasharray:none"
       d="m 210.00085,762.36132 c 0,0 190,75 390,0"
       id="path4056-8"
       inkscape:connector-curvature="0" />
    <path
       style="fill:none;stroke:#000000;stroke-width:6;stroke-linecap:round;stroke-linejoin:miter;stroke-miterlimit:4;stroke-opacity:1;stroke-dasharray:none"
       d="m 340.00085,632.36132 c 0,0 -34.17178,66.19632 0,130"
       id="path4060-7"
       inkscape:connector-curvature="0" />
    <path
       style="color:#000000;fill:none;stroke:#000000;stroke-width:6;stroke-linecap:round;stroke-linejoin:miter;stroke-miterlimit:4;stroke-opacity:1;stroke-dasharray:none;stroke-dashoffset:0;marker:none;visibility:visible;display:inline;overflow:visible;enable-background:accumulate"
       d="m 600.00085,632.36132 -260,-130"
       id="path4064-2"
       inkscape:connector-curvature="0" />
    <path
       style="fill:none;stroke:#000000;stroke-width:6;stroke-linecap:round;stroke-linejoin:miter;stroke-miterlimit:4;stroke-opacity:1;stroke-dasharray:none"
       d="m 210.00085,372.36132 c 0,0 60,-65 130,0"
       id="path3024-6"
       inkscape:connector-curvature="0" />
    <path
       style="color:#000000;fill:none;stroke:#000000;stroke-width:6;stroke-linecap:round;stroke-linejoin:miter;stroke-miterlimit:4;stroke-opacity:1;stroke-dasharray:none;stroke-dashoffset:0;marker:none;visibility:visible;display:inline;overflow:visible;enable-background:accumulate"
       d="m 210,502.36218 c 0,0 90,-120 260,-130"
       id="path4242"
       inkscape:connector-curvature="0" />
    <path
       style="color:#000000;fill:none;stroke:#000000;stroke-width:6;stroke-linecap:round;stroke-linejoin:miter;stroke-miterlimit:4;stroke-opacity:1;stroke-dasharray:none;stroke-dashoffset:0;marker:none;visibility:visible;display:inline;overflow:visible;enable-background:accumulate"
       d="m 600,372.36218 c 0,0 40,50 0,130"
       id="path4244"
       inkscape:connector-curvature="0" />
    <path
       style="color:#000000;fill:none;stroke:#000000;stroke-width:6;stroke-linecap:round;stroke-linejoin:miter;stroke-miterlimit:4;stroke-opacity:1;stroke-dasharray:none;stroke-dashoffset:0;marker:none;visibility:visible;display:inline;overflow:visible;enable-background:accumulate"
       d="m 470,762.36218 c 0,0 40,-60 0,-130"
       id="path4246"
       inkscape:connector-curvature="0" />
    <path
       style="color:#000000;fill:none;stroke:#000000;stroke-width:6;stroke-linecap:round;stroke-linejoin:miter;stroke-miterlimit:4;stroke-opacity:1;stroke-dasharray:none;stroke-dashoffset:0;marker:none;visibility:visible;display:inline;overflow:visible;enable-background:accumulate"
       d="m 210,632.36218 260,-130"
       id="path4248"
       inkscape:connector-curvature="0" />
    <path
       sodipodi:type="arc"
       style="fill:#550000;fill-rule:evenodd;stroke:#550000;stroke-width:1px;stroke-linecap:butt;stroke-linejoin:miter;stroke-opacity:1"
       id="path2987-48-1"
       sodipodi:cx="80"
       sodipodi:cy="462.36218"
       sodipodi:rx="10"
       sodipodi:ry="10"
       d="m 90,462.36218 a 10,10 0 1 1 -20,0 10,10 0 1 1 20,0 z"
       transform="matrix(1.5,0,0,1.5,-20,-620.71038)" />
    <path
       transform="matrix(1.5,0,0,1.5,110,-620.71038)"
       sodipodi:type="arc"
       style="fill:#0000ff;fill-rule:evenodd;stroke:#0000ff;stroke-width:1px;stroke-linecap:butt;stroke-linejoin:miter;stroke-opacity:1"
       id="path2987-8-1-0"
       sodipodi:cx="80"
       sodipodi:cy="462.36218"
       sodipodi:rx="10"
       sodipodi:ry="10"
       d="m 90,462.36218 a 10,10 0 1 1 -20,0 10,10 0 1 1 20,0 z" />
    <path
       transform="matrix(1.5,0,0,1.5,240,-620.71038)"
       sodipodi:type="arc"
       style="fill:#550000;fill-rule:evenodd;stroke:#550000;stroke-width:1px;stroke-linecap:butt;stroke-linejoin:miter;stroke-opacity:1"
       id="path2987-8-7-2-4"
       sodipodi:cx="80"
       sodipodi:cy="462.36218"
       sodipodi:rx="10"
       sodipodi:ry="10"
       d="m 90,462.36218 a 10,10 0 1 1 -20,0 10,10 0 1 1 20,0 z" />
    <path
       transform="matrix(1.5,0,0,1.5,370,-620.71038)"
       sodipodi:type="arc"
       style="fill:#0000ff;fill-rule:evenodd;stroke:#0000ff;stroke-width:1px;stroke-linecap:butt;stroke-linejoin:miter;stroke-opacity:1"
       id="path2987-8-5-4-7"
       sodipodi:cx="80"
       sodipodi:cy="462.36218"
       sodipodi:rx="10"
       sodipodi:ry="10"
       d="m 90,462.36218 a 10,10 0 1 1 -20,0 10,10 0 1 1 20,0 z" />
    <path
       style="color:#000000;fill:none;stroke:#000000;stroke-width:6;stroke-linecap:round;stroke-linejoin:miter;stroke-miterlimit:4;stroke-opacity:1;stroke-dasharray:none;stroke-dashoffset:0;marker:none;visibility:visible;display:inline;overflow:visible;enable-background:accumulate"
       d="m 99.6443,72.224613 c 0,0 60.69244,-66.1275811 130.44345,0.905857"
       id="path4550"
       inkscape:connector-curvature="0"
       sodipodi:nodetypes="cc" />
    <path
       style="color:#000000;fill:none;stroke:#000000;stroke-width:6;stroke-linecap:round;stroke-linejoin:miter;stroke-miterlimit:4;stroke-opacity:1;stroke-dasharray:none;stroke-dashoffset:0;marker:none;visibility:visible;display:inline;overflow:visible;enable-background:accumulate"
       d="m 359.62534,72.224613 c 0,0 59.78657,-67.0334384 130.44344,0"
       id="path4552"
       inkscape:connector-curvature="0"
       sodipodi:nodetypes="cc" />
  </g>
</svg>
