<?xml version="1.0" encoding="UTF-8" standalone="no"?>
<!-- Created with Inkscape (http://www.inkscape.org/) -->

<svg
   xmlns:dc="http://purl.org/dc/elements/1.1/"
   xmlns:cc="http://creativecommons.org/ns#"
   xmlns:rdf="http://www.w3.org/1999/02/22-rdf-syntax-ns#"
   xmlns:svg="http://www.w3.org/2000/svg"
   xmlns="http://www.w3.org/2000/svg"
   xmlns:sodipodi="http://sodipodi.sourceforge.net/DTD/sodipodi-0.dtd"
   xmlns:inkscape="http://www.inkscape.org/namespaces/inkscape"
   width="744.09448819"
   height="1052.3622047"
   id="svg2"
   version="1.1"
   inkscape:version="0.48.0 r9654"
   sodipodi:docname="stufff.svg">
  <defs
     id="defs4" />
  <sodipodi:namedview
     id="base"
     pagecolor="#ffffff"
     bordercolor="#666666"
     borderopacity="1.0"
     inkscape:pageopacity="0.0"
     inkscape:pageshadow="2"
     inkscape:zoom="1.1"
     inkscape:cx="1613.0793"
     inkscape:cy="806.81346"
     inkscape:document-units="px"
     inkscape:current-layer="layer1"
     showgrid="true"
     inkscape:snap-global="false"
     inkscape:window-width="1324"
     inkscape:window-height="757"
     inkscape:window-x="0"
     inkscape:window-y="0"
     inkscape:window-maximized="0"
     showguides="false">
    <inkscape:grid
       type="xygrid"
       id="grid2985" />
  </sodipodi:namedview>
  <metadata
     id="metadata7">
    <rdf:RDF>
      <cc:Work
         rdf:about="">
        <dc:format>image/svg+xml</dc:format>
        <dc:type
           rdf:resource="http://purl.org/dc/dcmitype/StillImage" />
        <dc:title />
      </cc:Work>
    </rdf:RDF>
  </metadata>
  <g
     inkscape:label="Layer 1"
     inkscape:groupmode="layer"
     id="layer1">
    <text
       xml:space="preserve"
       style="font-size:32px;font-style:italic;font-variant:normal;font-weight:normal;font-stretch:normal;line-height:125%;letter-spacing:0px;word-spacing:0px;fill:#000000;fill-opacity:1;stroke:none;font-family:Times New Roman;-inkscape-font-specification:'Times New Roman, Italic'"
       x="73.06749"
       y="446.44196"
       id="text3794"
       sodipodi:linespacing="125%"
       inkscape:transform-center-x="6.5"><tspan
         sodipodi:role="line"
         id="tspan3796"
         x="73.06749"
         y="446.44196" /></text>
    <text
       xml:space="preserve"
       style="font-size:32px;font-style:italic;font-variant:normal;font-weight:normal;font-stretch:normal;line-height:125%;letter-spacing:0px;word-spacing:0px;fill:#000000;fill-opacity:1;stroke:none;font-family:Times New Roman;-inkscape-font-specification:'Times New Roman, Italic'"
       x="201.83374"
       y="446.98636"
       id="text3794-5"
       sodipodi:linespacing="125%"><tspan
         sodipodi:role="line"
         id="tspan3796-0"
         x="201.83374"
         y="446.98636"
         style="font-size:32px;font-style:italic;-inkscape-font-specification:'Times New Roman, Italic'" /></text>
    <path
       sodipodi:type="arc"
       style="fill:#000000;fill-rule:evenodd;stroke:#000000;stroke-width:1px;stroke-linecap:butt;stroke-linejoin:miter;stroke-opacity:1"
       id="path2987-48-1"
       sodipodi:cx="80"
       sodipodi:cy="462.36218"
       sodipodi:rx="10"
       sodipodi:ry="10"
       d="m 90,462.36218 a 10,10 0 1 1 -20,0 10,10 0 1 1 20,0 z"
       transform="matrix(1.5,0,0,1.5,-20,-620.71038)" />
    <path
       transform="matrix(1.5,0,0,1.5,110,-620.71038)"
       sodipodi:type="arc"
       style="fill:#000000;fill-rule:evenodd;stroke:#000000;stroke-width:1px;stroke-linecap:butt;stroke-linejoin:miter;stroke-opacity:1"
       id="path2987-8-1-0"
       sodipodi:cx="80"
       sodipodi:cy="462.36218"
       sodipodi:rx="10"
       sodipodi:ry="10"
       d="m 90,462.36218 a 10,10 0 1 1 -20,0 10,10 0 1 1 20,0 z" />
    <path
       transform="matrix(1.5,0,0,1.5,240,-620.71038)"
       sodipodi:type="arc"
       style="fill:#000000;fill-rule:evenodd;stroke:#000000;stroke-width:1px;stroke-linecap:butt;stroke-linejoin:miter;stroke-opacity:1"
       id="path2987-8-7-2-4"
       sodipodi:cx="80"
       sodipodi:cy="462.36218"
       sodipodi:rx="10"
       sodipodi:ry="10"
       d="m 90,462.36218 a 10,10 0 1 1 -20,0 10,10 0 1 1 20,0 z" />
    <path
       transform="matrix(1.5,0,0,1.5,370,-620.71038)"
       sodipodi:type="arc"
       style="fill:#000000;fill-rule:evenodd;stroke:#000000;stroke-width:1px;stroke-linecap:butt;stroke-linejoin:miter;stroke-opacity:1"
       id="path2987-8-5-4-7"
       sodipodi:cx="80"
       sodipodi:cy="462.36218"
       sodipodi:rx="10"
       sodipodi:ry="10"
       d="m 90,462.36218 a 10,10 0 1 1 -20,0 10,10 0 1 1 20,0 z" />
    <path
       style="color:#000000;fill:none;stroke:#008000;stroke-width:6;stroke-linecap:round;stroke-linejoin:miter;stroke-miterlimit:4;stroke-opacity:1;stroke-dasharray:none;stroke-dashoffset:0;marker:none;visibility:visible;display:inline;overflow:visible;enable-background:accumulate"
       d="m 229.1819,73.13047 c 0,0 65.22171,-65.2217237 130.44344,0"
       id="path4552"
       inkscape:connector-curvature="0"
       sodipodi:nodetypes="cc" />
    <path
       style="fill:none;stroke:#008000;stroke-width:6;stroke-linecap:round;stroke-linejoin:miter;stroke-miterlimit:4;stroke-opacity:1;stroke-dasharray:none"
       d="m 99.644297,72.224643 c 0,0 196.571023,-143.125445 390.424473,0.905857"
       id="path3187"
       inkscape:connector-curvature="0"
       sodipodi:nodetypes="cc" />
    <path
       transform="matrix(0,1.5,-1.5,0,793.10813,82.362183)"
       sodipodi:type="arc"
       style="fill:#000000;fill-rule:evenodd;stroke:#000000;stroke-width:1px;stroke-linecap:butt;stroke-linejoin:miter;stroke-opacity:1"
       id="path2987-8-1-0-4"
       sodipodi:cx="80"
       sodipodi:cy="462.36218"
       sodipodi:rx="10"
       sodipodi:ry="10"
       d="m 90,462.36218 a 10,10 0 1 1 -20,0 10,10 0 1 1 20,0 z" />
    <path
       transform="matrix(0,1.5,-1.5,0,793.10813,212.36218)"
       sodipodi:type="arc"
       style="fill:#000000;fill-rule:evenodd;stroke:#000000;stroke-width:1px;stroke-linecap:butt;stroke-linejoin:miter;stroke-opacity:1"
       id="path2987-8-7-2-4-3"
       sodipodi:cx="80"
       sodipodi:cy="462.36218"
       sodipodi:rx="10"
       sodipodi:ry="10"
       d="m 90,462.36218 a 10,10 0 1 1 -20,0 10,10 0 1 1 20,0 z" />
    <path
       transform="matrix(0,1.5,-1.5,0,793.10813,342.36217)"
       sodipodi:type="arc"
       style="fill:#000000;fill-rule:evenodd;stroke:#000000;stroke-width:1px;stroke-linecap:butt;stroke-linejoin:miter;stroke-opacity:1"
       id="path2987-8-5-4-7-6"
       sodipodi:cx="80"
       sodipodi:cy="462.36218"
       sodipodi:rx="10"
       sodipodi:ry="10"
       d="m 90,462.36218 a 10,10 0 1 1 -20,0 10,10 0 1 1 20,0 z" />
    <path
       transform="matrix(0,1.5,-1.5,0,922.50758,81.7486)"
       sodipodi:type="arc"
       style="fill:#000000;fill-rule:evenodd;stroke:#000000;stroke-width:1px;stroke-linecap:butt;stroke-linejoin:miter;stroke-opacity:1"
       id="path2987-8-1-0-4-9"
       sodipodi:cx="80"
       sodipodi:cy="462.36218"
       sodipodi:rx="10"
       sodipodi:ry="10"
       d="m 90,462.36218 a 10,10 0 1 1 -20,0 10,10 0 1 1 20,0 z" />
    <path
       transform="matrix(0,1.5,-1.5,0,922.50758,211.7486)"
       sodipodi:type="arc"
       style="fill:#000000;fill-rule:evenodd;stroke:#000000;stroke-width:1px;stroke-linecap:butt;stroke-linejoin:miter;stroke-opacity:1"
       id="path2987-8-7-2-4-3-1"
       sodipodi:cx="80"
       sodipodi:cy="462.36218"
       sodipodi:rx="10"
       sodipodi:ry="10"
       d="m 90,462.36218 a 10,10 0 1 1 -20,0 10,10 0 1 1 20,0 z" />
    <path
       transform="matrix(0,1.5,-1.5,0,922.50758,341.74859)"
       sodipodi:type="arc"
       style="fill:#000000;fill-rule:evenodd;stroke:#000000;stroke-width:1px;stroke-linecap:butt;stroke-linejoin:miter;stroke-opacity:1"
       id="path2987-8-5-4-7-6-5"
       sodipodi:cx="80"
       sodipodi:cy="462.36218"
       sodipodi:rx="10"
       sodipodi:ry="10"
       d="m 90,462.36218 a 10,10 0 1 1 -20,0 10,10 0 1 1 20,0 z" />
    <path
       transform="matrix(0,1.5,-1.5,0,1052.951,82.654455)"
       sodipodi:type="arc"
       style="fill:#000000;fill-rule:evenodd;stroke:#000000;stroke-width:1px;stroke-linecap:butt;stroke-linejoin:miter;stroke-opacity:1"
       id="path2987-8-1-0-4-5"
       sodipodi:cx="80"
       sodipodi:cy="462.36218"
       sodipodi:rx="10"
       sodipodi:ry="10"
       d="m 90,462.36218 a 10,10 0 1 1 -20,0 10,10 0 1 1 20,0 z" />
    <path
       transform="matrix(0,1.5,-1.5,0,1052.951,212.65446)"
       sodipodi:type="arc"
       style="fill:#000000;fill-rule:evenodd;stroke:#000000;stroke-width:1px;stroke-linecap:butt;stroke-linejoin:miter;stroke-opacity:1"
       id="path2987-8-7-2-4-3-8"
       sodipodi:cx="80"
       sodipodi:cy="462.36218"
       sodipodi:rx="10"
       sodipodi:ry="10"
       d="m 90,462.36218 a 10,10 0 1 1 -20,0 10,10 0 1 1 20,0 z" />
    <path
       transform="matrix(0,1.5,-1.5,0,1052.951,342.65445)"
       sodipodi:type="arc"
       style="fill:#000000;fill-rule:evenodd;stroke:#000000;stroke-width:1px;stroke-linecap:butt;stroke-linejoin:miter;stroke-opacity:1"
       id="path2987-8-5-4-7-6-2"
       sodipodi:cx="80"
       sodipodi:cy="462.36218"
       sodipodi:rx="10"
       sodipodi:ry="10"
       d="m 90,462.36218 a 10,10 0 1 1 -20,0 10,10 0 1 1 20,0 z" />
    <path
       transform="matrix(0,1.5,-1.5,0,1182.4886,81.748597)"
       sodipodi:type="arc"
       style="fill:#000000;fill-rule:evenodd;stroke:#000000;stroke-width:1px;stroke-linecap:butt;stroke-linejoin:miter;stroke-opacity:1"
       id="path2987-8-1-0-4-8"
       sodipodi:cx="80"
       sodipodi:cy="462.36218"
       sodipodi:rx="10"
       sodipodi:ry="10"
       d="m 90,462.36218 a 10,10 0 1 1 -20,0 10,10 0 1 1 20,0 z" />
    <path
       transform="matrix(0,1.5,-1.5,0,1182.4886,211.74859)"
       sodipodi:type="arc"
       style="fill:#000000;fill-rule:evenodd;stroke:#000000;stroke-width:1px;stroke-linecap:butt;stroke-linejoin:miter;stroke-opacity:1"
       id="path2987-8-7-2-4-3-2"
       sodipodi:cx="80"
       sodipodi:cy="462.36218"
       sodipodi:rx="10"
       sodipodi:ry="10"
       d="m 90,462.36218 a 10,10 0 1 1 -20,0 10,10 0 1 1 20,0 z" />
    <path
       transform="matrix(0,1.5,-1.5,0,1182.4886,341.74858)"
       sodipodi:type="arc"
       style="fill:#000000;fill-rule:evenodd;stroke:#000000;stroke-width:1px;stroke-linecap:butt;stroke-linejoin:miter;stroke-opacity:1"
       id="path2987-8-5-4-7-6-0"
       sodipodi:cx="80"
       sodipodi:cy="462.36218"
       sodipodi:rx="10"
       sodipodi:ry="10"
       d="m 90,462.36218 a 10,10 0 1 1 -20,0 10,10 0 1 1 20,0 z" />
    <path
       style="fill:none;stroke:#008000;stroke-width:6;stroke-linecap:round;stroke-linejoin:miter;stroke-miterlimit:4;stroke-opacity:1;stroke-dasharray:none"
       d="m 226.91702,331.759 c 0,0 60.53075,32.34246 134.52002,2.25839"
       id="path3889"
       inkscape:connector-curvature="0"
       sodipodi:nodetypes="cc" />
    <path
       style="fill:none;stroke:#008000;stroke-width:6;stroke-linecap:round;stroke-linejoin:miter;stroke-miterlimit:4;stroke-opacity:1;stroke-dasharray:none"
       d="m 230.08774,202.66809 c 0,0 -63.48115,-46.5415 -130.90586,-0.46242"
       id="path3891"
       inkscape:connector-curvature="0"
       sodipodi:nodetypes="cc" />
    <path
       style="fill:none;stroke:#008000;stroke-width:6;stroke-linecap:round;stroke-linejoin:miter;stroke-opacity:1;stroke-miterlimit:4;stroke-dasharray:none"
       d="m 359.62533,203.57394 c 0,0 105.07944,70.65687 129.53758,260.88689"
       id="path3893"
       inkscape:connector-curvature="0" />
    <path
       style="fill:none;stroke:#008000;stroke-width:6;stroke-linecap:round;stroke-linejoin:miter;stroke-opacity:1;stroke-miterlimit:4;stroke-dasharray:none"
       d="m 99.644297,333.11153 c 0,0 150.372303,74.28029 390.424473,0"
       id="path3895"
       inkscape:connector-curvature="0" />
    <path
       style="fill:none;stroke:#008000;stroke-width:6;stroke-linecap:round;stroke-linejoin:miter;stroke-opacity:1;stroke-miterlimit:4;stroke-dasharray:none"
       d="m 99.644297,462.64912 c 0,0 58.880723,44.387 130.443443,0"
       id="path3897"
       inkscape:connector-curvature="0" />
    <path
       style="fill:none;stroke:#008000;stroke-width:6;stroke-linecap:round;stroke-linejoin:miter;stroke-opacity:1;stroke-miterlimit:4;stroke-dasharray:none"
       d="m 358.71947,462.64912 c 0,0 97.83258,-122.29073 130.44344,-261.79275"
       id="path3899"
       inkscape:connector-curvature="0" />
    <path
       sodipodi:type="arc"
       style="fill:#000000;fill-rule:evenodd;stroke:#000000;stroke-width:1px;stroke-linecap:butt;stroke-linejoin:miter;stroke-opacity:1"
       id="path2987-48-1-7"
       sodipodi:cx="80"
       sodipodi:cy="462.36218"
       sodipodi:rx="10"
       sodipodi:ry="10"
       d="m 90,462.36218 a 10,10 0 1 1 -20,0 10,10 0 1 1 20,0 z"
       transform="matrix(1.5,0,0,1.5,580.69988,-621.1172)" />
    <path
       transform="matrix(1.5,0,0,1.5,710.69989,-621.1172)"
       sodipodi:type="arc"
       style="fill:#000000;fill-rule:evenodd;stroke:#000000;stroke-width:1px;stroke-linecap:butt;stroke-linejoin:miter;stroke-opacity:1"
       id="path2987-8-1-0-3"
       sodipodi:cx="80"
       sodipodi:cy="462.36218"
       sodipodi:rx="10"
       sodipodi:ry="10"
       d="m 90,462.36218 a 10,10 0 1 1 -20,0 10,10 0 1 1 20,0 z" />
    <path
       transform="matrix(1.5,0,0,1.5,840.69988,-621.1172)"
       sodipodi:type="arc"
       style="fill:#000000;fill-rule:evenodd;stroke:#000000;stroke-width:1px;stroke-linecap:butt;stroke-linejoin:miter;stroke-opacity:1"
       id="path2987-8-7-2-4-1"
       sodipodi:cx="80"
       sodipodi:cy="462.36218"
       sodipodi:rx="10"
       sodipodi:ry="10"
       d="m 90,462.36218 a 10,10 0 1 1 -20,0 10,10 0 1 1 20,0 z" />
    <path
       transform="matrix(1.5,0,0,1.5,970.69988,-621.1172)"
       sodipodi:type="arc"
       style="fill:#000000;fill-rule:evenodd;stroke:#000000;stroke-width:1px;stroke-linecap:butt;stroke-linejoin:miter;stroke-opacity:1"
       id="path2987-8-5-4-7-0"
       sodipodi:cx="80"
       sodipodi:cy="462.36218"
       sodipodi:rx="10"
       sodipodi:ry="10"
       d="m 90,462.36218 a 10,10 0 1 1 -20,0 10,10 0 1 1 20,0 z" />
    <path
       transform="matrix(0,1.5,-1.5,0,1393.808,81.955357)"
       sodipodi:type="arc"
       style="fill:#000000;fill-rule:evenodd;stroke:#000000;stroke-width:1px;stroke-linecap:butt;stroke-linejoin:miter;stroke-opacity:1"
       id="path2987-8-1-0-4-2"
       sodipodi:cx="80"
       sodipodi:cy="462.36218"
       sodipodi:rx="10"
       sodipodi:ry="10"
       d="m 90,462.36218 a 10,10 0 1 1 -20,0 10,10 0 1 1 20,0 z" />
    <path
       transform="matrix(0,1.5,-1.5,0,1393.808,211.95536)"
       sodipodi:type="arc"
       style="fill:#000000;fill-rule:evenodd;stroke:#000000;stroke-width:1px;stroke-linecap:butt;stroke-linejoin:miter;stroke-opacity:1"
       id="path2987-8-7-2-4-3-3"
       sodipodi:cx="80"
       sodipodi:cy="462.36218"
       sodipodi:rx="10"
       sodipodi:ry="10"
       d="m 90,462.36218 a 10,10 0 1 1 -20,0 10,10 0 1 1 20,0 z" />
    <path
       transform="matrix(0,1.5,-1.5,0,1393.808,341.95535)"
       sodipodi:type="arc"
       style="fill:#000000;fill-rule:evenodd;stroke:#000000;stroke-width:1px;stroke-linecap:butt;stroke-linejoin:miter;stroke-opacity:1"
       id="path2987-8-5-4-7-6-7"
       sodipodi:cx="80"
       sodipodi:cy="462.36218"
       sodipodi:rx="10"
       sodipodi:ry="10"
       d="m 90,462.36218 a 10,10 0 1 1 -20,0 10,10 0 1 1 20,0 z" />
    <path
       transform="matrix(0,1.5,-1.5,0,1523.2075,81.341774)"
       sodipodi:type="arc"
       style="fill:#000000;fill-rule:evenodd;stroke:#000000;stroke-width:1px;stroke-linecap:butt;stroke-linejoin:miter;stroke-opacity:1"
       id="path2987-8-1-0-4-9-1"
       sodipodi:cx="80"
       sodipodi:cy="462.36218"
       sodipodi:rx="10"
       sodipodi:ry="10"
       d="m 90,462.36218 a 10,10 0 1 1 -20,0 10,10 0 1 1 20,0 z" />
    <path
       transform="matrix(0,1.5,-1.5,0,1523.2075,211.34178)"
       sodipodi:type="arc"
       style="fill:#000000;fill-rule:evenodd;stroke:#000000;stroke-width:1px;stroke-linecap:butt;stroke-linejoin:miter;stroke-opacity:1"
       id="path2987-8-7-2-4-3-1-8"
       sodipodi:cx="80"
       sodipodi:cy="462.36218"
       sodipodi:rx="10"
       sodipodi:ry="10"
       d="m 90,462.36218 a 10,10 0 1 1 -20,0 10,10 0 1 1 20,0 z" />
    <path
       transform="matrix(0,1.5,-1.5,0,1523.2075,341.34177)"
       sodipodi:type="arc"
       style="fill:#000000;fill-rule:evenodd;stroke:#000000;stroke-width:1px;stroke-linecap:butt;stroke-linejoin:miter;stroke-opacity:1"
       id="path2987-8-5-4-7-6-5-9"
       sodipodi:cx="80"
       sodipodi:cy="462.36218"
       sodipodi:rx="10"
       sodipodi:ry="10"
       d="m 90,462.36218 a 10,10 0 1 1 -20,0 10,10 0 1 1 20,0 z" />
    <path
       transform="matrix(0,1.5,-1.5,0,1653.6509,82.247629)"
       sodipodi:type="arc"
       style="fill:#000000;fill-rule:evenodd;stroke:#000000;stroke-width:1px;stroke-linecap:butt;stroke-linejoin:miter;stroke-opacity:1"
       id="path2987-8-1-0-4-5-3"
       sodipodi:cx="80"
       sodipodi:cy="462.36218"
       sodipodi:rx="10"
       sodipodi:ry="10"
       d="m 90,462.36218 a 10,10 0 1 1 -20,0 10,10 0 1 1 20,0 z" />
    <path
       transform="matrix(0,1.5,-1.5,0,1653.6509,212.24764)"
       sodipodi:type="arc"
       style="fill:#000000;fill-rule:evenodd;stroke:#000000;stroke-width:1px;stroke-linecap:butt;stroke-linejoin:miter;stroke-opacity:1"
       id="path2987-8-7-2-4-3-8-7"
       sodipodi:cx="80"
       sodipodi:cy="462.36218"
       sodipodi:rx="10"
       sodipodi:ry="10"
       d="m 90,462.36218 a 10,10 0 1 1 -20,0 10,10 0 1 1 20,0 z" />
    <path
       transform="matrix(0,1.5,-1.5,0,1653.6509,342.24763)"
       sodipodi:type="arc"
       style="fill:#000000;fill-rule:evenodd;stroke:#000000;stroke-width:1px;stroke-linecap:butt;stroke-linejoin:miter;stroke-opacity:1"
       id="path2987-8-5-4-7-6-2-4"
       sodipodi:cx="80"
       sodipodi:cy="462.36218"
       sodipodi:rx="10"
       sodipodi:ry="10"
       d="m 90,462.36218 a 10,10 0 1 1 -20,0 10,10 0 1 1 20,0 z" />
    <path
       transform="matrix(0,1.5,-1.5,0,1783.1884,81.341771)"
       sodipodi:type="arc"
       style="fill:#000000;fill-rule:evenodd;stroke:#000000;stroke-width:1px;stroke-linecap:butt;stroke-linejoin:miter;stroke-opacity:1"
       id="path2987-8-1-0-4-8-8"
       sodipodi:cx="80"
       sodipodi:cy="462.36218"
       sodipodi:rx="10"
       sodipodi:ry="10"
       d="m 90,462.36218 a 10,10 0 1 1 -20,0 10,10 0 1 1 20,0 z" />
    <path
       transform="matrix(0,1.5,-1.5,0,1783.1884,211.34177)"
       sodipodi:type="arc"
       style="fill:#000000;fill-rule:evenodd;stroke:#000000;stroke-width:1px;stroke-linecap:butt;stroke-linejoin:miter;stroke-opacity:1"
       id="path2987-8-7-2-4-3-2-0"
       sodipodi:cx="80"
       sodipodi:cy="462.36218"
       sodipodi:rx="10"
       sodipodi:ry="10"
       d="m 90,462.36218 a 10,10 0 1 1 -20,0 10,10 0 1 1 20,0 z" />
    <path
       transform="matrix(0,1.5,-1.5,0,1783.1884,341.34176)"
       sodipodi:type="arc"
       style="fill:#000000;fill-rule:evenodd;stroke:#000000;stroke-width:1px;stroke-linecap:butt;stroke-linejoin:miter;stroke-opacity:1"
       id="path2987-8-5-4-7-6-0-4"
       sodipodi:cx="80"
       sodipodi:cy="462.36218"
       sodipodi:rx="10"
       sodipodi:ry="10"
       d="m 90,462.36218 a 10,10 0 1 1 -20,0 10,10 0 1 1 20,0 z" />
    <path
       style="color:#000000;fill:none;stroke:#ff6600;stroke-width:6;stroke-linecap:round;stroke-linejoin:miter;stroke-miterlimit:4;stroke-opacity:1;stroke-dasharray:none;stroke-dashoffset:0;marker:none;visibility:visible;display:inline;overflow:visible;enable-background:accumulate"
       d="m 700.22765,72.224643 c 0,0 -48.01043,51.633867 -0.90586,132.255157"
       id="path3964"
       inkscape:connector-curvature="0" />
    <path
       style="color:#000000;fill:none;stroke:#ff6600;stroke-width:6;stroke-linecap:round;stroke-linejoin:miter;stroke-miterlimit:4;stroke-opacity:1;stroke-dasharray:none;stroke-dashoffset:0;marker:none;visibility:visible;display:inline;overflow:visible;enable-background:accumulate"
       d="m 829.76524,71.318785 c 0,0 56.16315,-54.351434 131.3493,-0.905857"
       id="path3966"
       inkscape:connector-curvature="0" />
    <path
       style="color:#000000;fill:none;stroke:#ff6600;stroke-width:6;stroke-linecap:round;stroke-linejoin:miter;stroke-miterlimit:4;stroke-opacity:1;stroke-dasharray:none;stroke-dashoffset:0;marker:none;visibility:visible;display:inline;overflow:visible;enable-background:accumulate"
       d="m 700.22765,460.8374 c 0,0 15.39957,-150.3723 129.53759,-260.88689"
       id="path3968"
       inkscape:connector-curvature="0" />
    <path
       style="color:#000000;fill:none;stroke:#ff6600;stroke-width:6;stroke-linecap:round;stroke-linejoin:miter;stroke-miterlimit:4;stroke-opacity:1;stroke-dasharray:none;stroke-dashoffset:0;marker:none;visibility:visible;display:inline;overflow:visible;enable-background:accumulate"
       d="m 699.32179,332.20567 c 0,0 63.41001,49.82215 130.44345,-0.90586"
       id="path3970"
       inkscape:connector-curvature="0" />
    <path
       style="color:#000000;fill:none;stroke:#ff6600;stroke-width:6;stroke-linecap:round;stroke-linejoin:miter;stroke-miterlimit:4;stroke-opacity:1;stroke-dasharray:none;stroke-dashoffset:0;marker:none;visibility:visible;display:inline;overflow:visible;enable-background:accumulate"
       d="m 959.30282,201.76223 c 0,0 57.06898,-47.10458 130.44348,-0.90586"
       id="path3972"
       inkscape:connector-curvature="0" />
    <path
       style="color:#000000;fill:none;stroke:#ff6600;stroke-width:6;stroke-linecap:round;stroke-linejoin:miter;stroke-miterlimit:4;stroke-opacity:1;stroke-dasharray:none;stroke-dashoffset:0;marker:none;visibility:visible;display:inline;overflow:visible;enable-background:accumulate"
       d="m 960.20868,333.11153 c 0,0 66.12762,49.82215 128.63172,0"
       id="path3974"
       inkscape:connector-curvature="0" />
    <path
       style="color:#000000;fill:none;stroke:#ff6600;stroke-width:6;stroke-linecap:round;stroke-linejoin:miter;stroke-miterlimit:4;stroke-opacity:1;stroke-dasharray:none;stroke-dashoffset:0;marker:none;visibility:visible;display:inline;overflow:visible;enable-background:accumulate"
       d="m 1090.6521,72.224643 c 0,0 67.0335,163.960157 -0.9058,390.424477"
       id="path3976"
       inkscape:connector-curvature="0" />
    <path
       style="color:#000000;fill:none;stroke:#ff6600;stroke-width:6;stroke-linecap:round;stroke-linejoin:miter;stroke-miterlimit:4;stroke-opacity:1;stroke-dasharray:none;stroke-dashoffset:0;marker:none;visibility:visible;display:inline;overflow:visible;enable-background:accumulate"
       d="m 828.85938,460.8374 c 0,0 56.16315,59.78658 131.3493,0"
       id="path3978"
       inkscape:connector-curvature="0" />
    <path
       transform="matrix(0,1.5,-1.5,0,1393.8227,212.06383)"
       sodipodi:type="arc"
       style="fill:#000000;fill-rule:evenodd;stroke:#000000;stroke-width:1px;stroke-linecap:butt;stroke-linejoin:miter;stroke-opacity:1"
       id="path2987-8-7-2-4-3-13"
       sodipodi:cx="80"
       sodipodi:cy="462.36218"
       sodipodi:rx="10"
       sodipodi:ry="10"
       d="m 90,462.36218 a 10,10 0 1 1 -20,0 10,10 0 1 1 20,0 z" />
    <path
       transform="matrix(0,1.5,-1.5,0,1523.2222,211.45025)"
       sodipodi:type="arc"
       style="fill:#000000;fill-rule:evenodd;stroke:#000000;stroke-width:1px;stroke-linecap:butt;stroke-linejoin:miter;stroke-opacity:1"
       id="path2987-8-7-2-4-3-1-7"
       sodipodi:cx="80"
       sodipodi:cy="462.36218"
       sodipodi:rx="10"
       sodipodi:ry="10"
       d="m 90,462.36218 a 10,10 0 1 1 -20,0 10,10 0 1 1 20,0 z" />
    <path
       sodipodi:type="arc"
       style="fill:#000000;fill-rule:evenodd;stroke:#000000;stroke-width:1px;stroke-linecap:butt;stroke-linejoin:miter;stroke-opacity:1"
       id="path2987-48-1-7-8"
       sodipodi:cx="80"
       sodipodi:cy="462.36218"
       sodipodi:rx="10"
       sodipodi:ry="10"
       d="m 90,462.36218 a 10,10 0 1 1 -20,0 10,10 0 1 1 20,0 z"
       transform="matrix(1.5,0,0,1.5,1181.4145,-621.41555)" />
    <path
       transform="matrix(1.5,0,0,1.5,1311.4145,-621.41555)"
       sodipodi:type="arc"
       style="fill:#000000;fill-rule:evenodd;stroke:#000000;stroke-width:1px;stroke-linecap:butt;stroke-linejoin:miter;stroke-opacity:1"
       id="path2987-8-1-0-3-6"
       sodipodi:cx="80"
       sodipodi:cy="462.36218"
       sodipodi:rx="10"
       sodipodi:ry="10"
       d="m 90,462.36218 a 10,10 0 1 1 -20,0 10,10 0 1 1 20,0 z" />
    <path
       transform="matrix(1.5,0,0,1.5,1441.4145,-621.41555)"
       sodipodi:type="arc"
       style="fill:#000000;fill-rule:evenodd;stroke:#000000;stroke-width:1px;stroke-linecap:butt;stroke-linejoin:miter;stroke-opacity:1"
       id="path2987-8-7-2-4-1-1"
       sodipodi:cx="80"
       sodipodi:cy="462.36218"
       sodipodi:rx="10"
       sodipodi:ry="10"
       d="m 90,462.36218 a 10,10 0 1 1 -20,0 10,10 0 1 1 20,0 z" />
    <path
       transform="matrix(1.5,0,0,1.5,1571.4145,-621.41555)"
       sodipodi:type="arc"
       style="fill:#000000;fill-rule:evenodd;stroke:#000000;stroke-width:1px;stroke-linecap:butt;stroke-linejoin:miter;stroke-opacity:1"
       id="path2987-8-5-4-7-0-5"
       sodipodi:cx="80"
       sodipodi:cy="462.36218"
       sodipodi:rx="10"
       sodipodi:ry="10"
       d="m 90,462.36218 a 10,10 0 1 1 -20,0 10,10 0 1 1 20,0 z" />
    <path
       transform="matrix(0,1.5,-1.5,0,1994.5226,81.657009)"
       sodipodi:type="arc"
       style="fill:#000000;fill-rule:evenodd;stroke:#000000;stroke-width:1px;stroke-linecap:butt;stroke-linejoin:miter;stroke-opacity:1"
       id="path2987-8-1-0-4-2-0"
       sodipodi:cx="80"
       sodipodi:cy="462.36218"
       sodipodi:rx="10"
       sodipodi:ry="10"
       d="m 90,462.36218 a 10,10 0 1 1 -20,0 10,10 0 1 1 20,0 z" />
    <path
       transform="matrix(0,1.5,-1.5,0,1994.5226,211.65701)"
       sodipodi:type="arc"
       style="fill:#000000;fill-rule:evenodd;stroke:#000000;stroke-width:1px;stroke-linecap:butt;stroke-linejoin:miter;stroke-opacity:1"
       id="path2987-8-7-2-4-3-3-6"
       sodipodi:cx="80"
       sodipodi:cy="462.36218"
       sodipodi:rx="10"
       sodipodi:ry="10"
       d="m 90,462.36218 a 10,10 0 1 1 -20,0 10,10 0 1 1 20,0 z" />
    <path
       transform="matrix(0,1.5,-1.5,0,1994.5226,341.657)"
       sodipodi:type="arc"
       style="fill:#000000;fill-rule:evenodd;stroke:#000000;stroke-width:1px;stroke-linecap:butt;stroke-linejoin:miter;stroke-opacity:1"
       id="path2987-8-5-4-7-6-7-5"
       sodipodi:cx="80"
       sodipodi:cy="462.36218"
       sodipodi:rx="10"
       sodipodi:ry="10"
       d="m 90,462.36218 a 10,10 0 1 1 -20,0 10,10 0 1 1 20,0 z" />
    <path
       transform="matrix(0,1.5,-1.5,0,2123.9221,81.043429)"
       sodipodi:type="arc"
       style="fill:#000000;fill-rule:evenodd;stroke:#000000;stroke-width:1px;stroke-linecap:butt;stroke-linejoin:miter;stroke-opacity:1"
       id="path2987-8-1-0-4-9-1-3"
       sodipodi:cx="80"
       sodipodi:cy="462.36218"
       sodipodi:rx="10"
       sodipodi:ry="10"
       d="m 90,462.36218 a 10,10 0 1 1 -20,0 10,10 0 1 1 20,0 z" />
    <path
       transform="matrix(0,1.5,-1.5,0,2123.9221,211.04343)"
       sodipodi:type="arc"
       style="fill:#000000;fill-rule:evenodd;stroke:#000000;stroke-width:1px;stroke-linecap:butt;stroke-linejoin:miter;stroke-opacity:1"
       id="path2987-8-7-2-4-3-1-8-1"
       sodipodi:cx="80"
       sodipodi:cy="462.36218"
       sodipodi:rx="10"
       sodipodi:ry="10"
       d="m 90,462.36218 a 10,10 0 1 1 -20,0 10,10 0 1 1 20,0 z" />
    <path
       transform="matrix(0,1.5,-1.5,0,2123.9221,341.04342)"
       sodipodi:type="arc"
       style="fill:#000000;fill-rule:evenodd;stroke:#000000;stroke-width:1px;stroke-linecap:butt;stroke-linejoin:miter;stroke-opacity:1"
       id="path2987-8-5-4-7-6-5-9-0"
       sodipodi:cx="80"
       sodipodi:cy="462.36218"
       sodipodi:rx="10"
       sodipodi:ry="10"
       d="m 90,462.36218 a 10,10 0 1 1 -20,0 10,10 0 1 1 20,0 z" />
    <path
       transform="matrix(0,1.5,-1.5,0,2254.3655,81.949279)"
       sodipodi:type="arc"
       style="fill:#000000;fill-rule:evenodd;stroke:#000000;stroke-width:1px;stroke-linecap:butt;stroke-linejoin:miter;stroke-opacity:1"
       id="path2987-8-1-0-4-5-3-1"
       sodipodi:cx="80"
       sodipodi:cy="462.36218"
       sodipodi:rx="10"
       sodipodi:ry="10"
       d="m 90,462.36218 a 10,10 0 1 1 -20,0 10,10 0 1 1 20,0 z" />
    <path
       transform="matrix(0,1.5,-1.5,0,2254.3655,211.94929)"
       sodipodi:type="arc"
       style="fill:#000000;fill-rule:evenodd;stroke:#000000;stroke-width:1px;stroke-linecap:butt;stroke-linejoin:miter;stroke-opacity:1"
       id="path2987-8-7-2-4-3-8-7-9"
       sodipodi:cx="80"
       sodipodi:cy="462.36218"
       sodipodi:rx="10"
       sodipodi:ry="10"
       d="m 90,462.36218 a 10,10 0 1 1 -20,0 10,10 0 1 1 20,0 z" />
    <path
       transform="matrix(0,1.5,-1.5,0,2254.3655,341.94928)"
       sodipodi:type="arc"
       style="fill:#000000;fill-rule:evenodd;stroke:#000000;stroke-width:1px;stroke-linecap:butt;stroke-linejoin:miter;stroke-opacity:1"
       id="path2987-8-5-4-7-6-2-4-5"
       sodipodi:cx="80"
       sodipodi:cy="462.36218"
       sodipodi:rx="10"
       sodipodi:ry="10"
       d="m 90,462.36218 a 10,10 0 1 1 -20,0 10,10 0 1 1 20,0 z" />
    <path
       transform="matrix(0,1.5,-1.5,0,2383.903,81.043429)"
       sodipodi:type="arc"
       style="fill:#000000;fill-rule:evenodd;stroke:#000000;stroke-width:1px;stroke-linecap:butt;stroke-linejoin:miter;stroke-opacity:1"
       id="path2987-8-1-0-4-8-8-7"
       sodipodi:cx="80"
       sodipodi:cy="462.36218"
       sodipodi:rx="10"
       sodipodi:ry="10"
       d="m 90,462.36218 a 10,10 0 1 1 -20,0 10,10 0 1 1 20,0 z" />
    <path
       transform="matrix(0,1.5,-1.5,0,2383.903,211.04342)"
       sodipodi:type="arc"
       style="fill:#000000;fill-rule:evenodd;stroke:#000000;stroke-width:1px;stroke-linecap:butt;stroke-linejoin:miter;stroke-opacity:1"
       id="path2987-8-7-2-4-3-2-0-6"
       sodipodi:cx="80"
       sodipodi:cy="462.36218"
       sodipodi:rx="10"
       sodipodi:ry="10"
       d="m 90,462.36218 a 10,10 0 1 1 -20,0 10,10 0 1 1 20,0 z" />
    <path
       transform="matrix(0,1.5,-1.5,0,2383.903,341.04341)"
       sodipodi:type="arc"
       style="fill:#000000;fill-rule:evenodd;stroke:#000000;stroke-width:1px;stroke-linecap:butt;stroke-linejoin:miter;stroke-opacity:1"
       id="path2987-8-5-4-7-6-0-4-8"
       sodipodi:cx="80"
       sodipodi:cy="462.36218"
       sodipodi:rx="10"
       sodipodi:ry="10"
       d="m 90,462.36218 a 10,10 0 1 1 -20,0 10,10 0 1 1 20,0 z" />
    <path
       style="color:#000000;fill:none;stroke:#ff6600;stroke-width:6;stroke-linecap:round;stroke-linejoin:miter;stroke-miterlimit:4;stroke-opacity:1;stroke-dasharray:none;stroke-dashoffset:0;marker:none;visibility:visible;display:inline;overflow:visible;enable-background:accumulate"
       d="m 1300.9422,71.926299 c 0,0 1.0805,38.906591 0,128.618791"
       id="path3964-5"
       inkscape:connector-curvature="0"
       sodipodi:nodetypes="cc" />
    <path
       style="color:#000000;fill:none;stroke:#ff6600;stroke-width:6;stroke-linecap:round;stroke-linejoin:miter;stroke-miterlimit:4;stroke-opacity:1;stroke-dasharray:none;stroke-dashoffset:0;marker:none;visibility:visible;display:inline;overflow:visible;enable-background:accumulate"
       d="m 1430.4798,71.020439 c 0,0 56.1632,-54.35143 131.3493,-0.90586"
       id="path3966-4"
       inkscape:connector-curvature="0" />
    <path
       style="color:#000000;fill:none;stroke:#ff6600;stroke-width:6;stroke-linecap:round;stroke-linejoin:miter;stroke-miterlimit:4;stroke-opacity:1;stroke-dasharray:none;stroke-dashoffset:0;marker:none;visibility:visible;display:inline;overflow:visible;enable-background:accumulate"
       d="m 1300.9422,460.53905 c 0,0 65.3996,-134.00867 128.6285,-258.15962"
       id="path3968-7"
       inkscape:connector-curvature="0"
       sodipodi:nodetypes="cc" />
    <path
       style="color:#000000;fill:none;stroke:#ff6600;stroke-width:6;stroke-linecap:round;stroke-linejoin:miter;stroke-miterlimit:4;stroke-opacity:1;stroke-dasharray:none;stroke-dashoffset:0;marker:none;visibility:visible;display:inline;overflow:visible;enable-background:accumulate"
       d="m 1300.0364,331.90732 c 0,0 49.7736,-0.17785 130.4434,-0.90586"
       id="path3970-9"
       inkscape:connector-curvature="0"
       sodipodi:nodetypes="cc" />
    <path
       style="color:#000000;fill:none;stroke:#ff6600;stroke-width:6;stroke-linecap:round;stroke-linejoin:miter;stroke-miterlimit:4;stroke-opacity:1;stroke-dasharray:none;stroke-dashoffset:0;marker:none;visibility:visible;display:inline;overflow:visible;enable-background:accumulate"
       d="m 1559.1083,200.55479 c 0,0 57.9781,1.07724 131.3526,0.003"
       id="path3972-6"
       inkscape:connector-curvature="0"
       sodipodi:nodetypes="cc" />
    <path
       style="color:#000000;fill:none;stroke:#ff6600;stroke-width:6;stroke-linecap:round;stroke-linejoin:miter;stroke-miterlimit:4;stroke-opacity:1;stroke-dasharray:none;stroke-dashoffset:0;marker:none;visibility:visible;display:inline;overflow:visible;enable-background:accumulate"
       d="m 1560.0142,332.81318 c 0,0 40.6731,-0.17785 129.5408,0"
       id="path3974-6"
       inkscape:connector-curvature="0"
       sodipodi:nodetypes="cc" />
    <path
       style="color:#000000;fill:none;stroke:#ff6600;stroke-width:6;stroke-linecap:round;stroke-linejoin:miter;stroke-miterlimit:4;stroke-opacity:1;stroke-dasharray:none;stroke-dashoffset:0;marker:none;visibility:visible;display:inline;overflow:visible;enable-background:accumulate"
       d="m 1691.3667,71.926299 c 0,0 67.0335,163.960151 -0.9058,390.424471"
       id="path3976-6"
       inkscape:connector-curvature="0" />
    <path
       style="color:#000000;fill:none;stroke:#ff6600;stroke-width:6;stroke-linecap:round;stroke-linejoin:miter;stroke-miterlimit:4;stroke-opacity:1;stroke-dasharray:none;stroke-dashoffset:0;marker:none;visibility:visible;display:inline;overflow:visible;enable-background:accumulate"
       d="m 1429.574,460.53905 c 0,0 48.8904,-0.21342 131.3493,0"
       id="path3978-6"
       inkscape:connector-curvature="0"
       sodipodi:nodetypes="cc" />
    <path
       style="color:#000000;fill:none;stroke:#008000;stroke-width:6;stroke-linecap:round;stroke-linejoin:miter;stroke-miterlimit:4;stroke-opacity:1;stroke-dasharray:none;stroke-dashoffset:0;marker:none;visibility:visible;display:inline;overflow:visible;enable-background:accumulate"
       d="m 1430.3238,71.877154 c 0,0 58.8581,51.141916 130.4435,-0.909091"
       id="path4552-7"
       inkscape:connector-curvature="0"
       sodipodi:nodetypes="cc" />
    <path
       style="fill:none;stroke:#008000;stroke-width:6;stroke-linecap:round;stroke-linejoin:miter;stroke-miterlimit:4;stroke-opacity:1;stroke-dasharray:none"
       d="m 1300.7862,70.971324 c 0,0 196.571,-143.12544 390.4245,0.90586"
       id="path3187-3"
       inkscape:connector-curvature="0"
       sodipodi:nodetypes="cc" />
    <path
       style="fill:none;stroke:#008000;stroke-width:6;stroke-linecap:round;stroke-linejoin:miter;stroke-miterlimit:4;stroke-opacity:1;stroke-dasharray:none"
       d="m 1430.7862,331.41478 c 0,0 51.4398,0.52429 131.7928,1.3493"
       id="path3889-6"
       inkscape:connector-curvature="0"
       sodipodi:nodetypes="cc" />
    <path
       style="fill:none;stroke:#008000;stroke-width:6;stroke-linecap:round;stroke-linejoin:miter;stroke-miterlimit:4;stroke-opacity:1;stroke-dasharray:none"
       d="m 1431.2297,201.41478 c 0,0 -58.0266,-0.17786 -129.9968,-0.46242"
       id="path3891-2"
       inkscape:connector-curvature="0"
       sodipodi:nodetypes="cc" />
    <path
       style="fill:none;stroke:#008000;stroke-width:6;stroke-linecap:round;stroke-linejoin:miter;stroke-miterlimit:4;stroke-opacity:1;stroke-dasharray:none"
       d="m 1558.9491,199.59336 c 0,0 51.4431,102.47505 131.3557,263.61416"
       id="path3893-7"
       inkscape:connector-curvature="0"
       sodipodi:nodetypes="cc" />
    <path
       style="fill:none;stroke:#008000;stroke-width:6;stroke-linecap:round;stroke-linejoin:miter;stroke-miterlimit:4;stroke-opacity:1;stroke-dasharray:none"
       d="m 1300.7862,331.85822 c 0,0 154.9178,-67.53789 390.4245,0"
       id="path3895-0"
       inkscape:connector-curvature="0"
       sodipodi:nodetypes="cc" />
    <path
       style="fill:none;stroke:#008000;stroke-width:6;stroke-linecap:round;stroke-linejoin:miter;stroke-miterlimit:4;stroke-opacity:1;stroke-dasharray:none"
       d="m 1300.7862,461.39581 c 0,0 55.2443,-1.97664 126.8071,-0.90909"
       id="path3897-3"
       inkscape:connector-curvature="0"
       sodipodi:nodetypes="cc" />
    <path
       style="fill:none;stroke:#008000;stroke-width:6;stroke-linecap:round;stroke-linejoin:miter;stroke-miterlimit:4;stroke-opacity:1;stroke-dasharray:none"
       d="m 1559.8614,461.39581 c 0,0 68.7417,-138.65437 130.4434,-261.79275"
       id="path3899-9"
       inkscape:connector-curvature="0"
       sodipodi:nodetypes="cc" />
  </g>
</svg>
