<?xml version="1.0" encoding="UTF-8" standalone="no"?>
<!-- Created with Inkscape (http://www.inkscape.org/) -->

<svg
   xmlns:dc="http://purl.org/dc/elements/1.1/"
   xmlns:cc="http://creativecommons.org/ns#"
   xmlns:rdf="http://www.w3.org/1999/02/22-rdf-syntax-ns#"
   xmlns:svg="http://www.w3.org/2000/svg"
   xmlns="http://www.w3.org/2000/svg"
   xmlns:sodipodi="http://sodipodi.sourceforge.net/DTD/sodipodi-0.dtd"
   xmlns:inkscape="http://www.inkscape.org/namespaces/inkscape"
   width="744.09448819"
   height="1052.3622047"
   id="svg2"
   version="1.1"
   inkscape:version="0.48.0 r9654"
   sodipodi:docname="swap.eps">
  <defs
     id="defs4" />
  <sodipodi:namedview
     id="base"
     pagecolor="#ffffff"
     bordercolor="#666666"
     borderopacity="1.0"
     inkscape:pageopacity="0.0"
     inkscape:pageshadow="2"
     inkscape:zoom="1.18"
     inkscape:cx="237.08011"
     inkscape:cy="700.95002"
     inkscape:document-units="px"
     inkscape:current-layer="layer1"
     showgrid="true"
     inkscape:snap-global="false"
     inkscape:window-width="1440"
     inkscape:window-height="863"
     inkscape:window-x="0"
     inkscape:window-y="0"
     inkscape:window-maximized="0"
     showguides="true">
    <inkscape:grid
       type="xygrid"
       id="grid2985" />
  </sodipodi:namedview>
  <metadata
     id="metadata7">
    <rdf:RDF>
      <cc:Work
         rdf:about="">
        <dc:format>image/svg+xml</dc:format>
        <dc:type
           rdf:resource="http://purl.org/dc/dcmitype/StillImage" />
        <dc:title></dc:title>
      </cc:Work>
    </rdf:RDF>
  </metadata>
  <g
     inkscape:label="Layer 1"
     inkscape:groupmode="layer"
     id="layer1">
    <path
       style="color:#000000;fill:none;stroke:#b3b3b3;stroke-width:6;stroke-linecap:round;stroke-linejoin:miter;stroke-miterlimit:4;stroke-opacity:1;stroke-dasharray:none;stroke-dashoffset:0;marker:none;visibility:visible;display:inline;overflow:visible;enable-background:accumulate"
       d="m -18.220336,116.19269 651.694906,0"
       id="path4949-7"
       inkscape:connector-curvature="0" />
    <path
       transform="matrix(0,-1.5,-1.5,0,673.70036,236.61555)"
       sodipodi:type="arc"
       style="fill:#aa0000;fill-rule:evenodd;stroke:#aa0000;stroke-width:1px;stroke-linecap:butt;stroke-linejoin:miter;stroke-opacity:1"
       id="path2987-8-5-4-7-6-06"
       sodipodi:cx="80"
       sodipodi:cy="462.36218"
       sodipodi:rx="10"
       sodipodi:ry="10"
       d="m 90,462.36218 a 10,10 0 1 1 -20,0 10,10 0 1 1 20,0 z" />
    <path
       transform="matrix(0,-1.5,-1.5,0,803.09979,237.22913)"
       sodipodi:type="arc"
       style="fill:#aa0000;fill-rule:evenodd;stroke:#aa0000;stroke-width:1px;stroke-linecap:butt;stroke-linejoin:miter;stroke-opacity:1"
       id="path2987-8-5-4-7-6-5-04"
       sodipodi:cx="80"
       sodipodi:cy="462.36218"
       sodipodi:rx="10"
       sodipodi:ry="10"
       d="m 90,462.36218 a 10,10 0 1 1 -20,0 10,10 0 1 1 20,0 z" />
    <path
       transform="matrix(0,-1.5,-1.5,0,933.54319,236.32327)"
       sodipodi:type="arc"
       style="fill:#aa0000;fill-rule:evenodd;stroke:#aa0000;stroke-width:1px;stroke-linecap:butt;stroke-linejoin:miter;stroke-opacity:1"
       id="path2987-8-5-4-7-6-2-05"
       sodipodi:cx="80"
       sodipodi:cy="462.36218"
       sodipodi:rx="10"
       sodipodi:ry="10"
       d="m 90,462.36218 a 10,10 0 1 1 -20,0 10,10 0 1 1 20,0 z" />
    <path
       transform="matrix(0,-1.5,-1.5,0,1063.0808,237.22914)"
       sodipodi:type="arc"
       style="fill:#00147a;fill-opacity:1;fill-rule:evenodd;stroke:#00147a;stroke-width:1px;stroke-linecap:butt;stroke-linejoin:miter;stroke-opacity:1"
       id="path2987-8-5-4-7-6-0-6"
       sodipodi:cx="80"
       sodipodi:cy="462.36218"
       sodipodi:rx="10"
       sodipodi:ry="10"
       d="m 90,462.36218 a 10,10 0 1 1 -20,0 10,10 0 1 1 20,0 z" />
    <path
       transform="matrix(0,-1.5,-1.5,0,1193.1123,237.21466)"
       sodipodi:type="arc"
       style="fill:#00147a;fill-opacity:1;fill-rule:evenodd;stroke:#00147a;stroke-width:1px;stroke-linecap:butt;stroke-linejoin:miter;stroke-opacity:1"
       id="path2987-8-5-4-7-6-5-9-8"
       sodipodi:cx="80"
       sodipodi:cy="462.36218"
       sodipodi:rx="10"
       sodipodi:ry="10"
       d="m 90,462.36218 a 10,10 0 1 1 -20,0 10,10 0 1 1 20,0 z" />
    <path
       transform="matrix(0,-1.5,-1.5,0,1323.5557,236.3088)"
       sodipodi:type="arc"
       style="fill:#00147a;fill-opacity:1;fill-rule:evenodd;stroke:#00147a;stroke-width:1px;stroke-linecap:butt;stroke-linejoin:miter;stroke-opacity:1"
       id="path2987-8-5-4-7-6-2-4-5"
       sodipodi:cx="80"
       sodipodi:cy="462.36218"
       sodipodi:rx="10"
       sodipodi:ry="10"
       d="m 90,462.36218 a 10,10 0 1 1 -20,0 10,10 0 1 1 20,0 z" />
    <path
       style="color:#000000;fill:none;stroke:#b3b3b3;stroke-width:6;stroke-linecap:round;stroke-linejoin:miter;stroke-miterlimit:4;stroke-opacity:1;stroke-dasharray:none;stroke-dashoffset:0;marker:none;visibility:visible;display:inline;overflow:visible;enable-background:accumulate"
       d="m -16.525421,434.56557 651.694911,0"
       id="path4949-5"
       inkscape:connector-curvature="0" />
    <path
       transform="matrix(0,-1.5,-1.5,0,672.85289,554.10706)"
       sodipodi:type="arc"
       style="fill:#aa0000;fill-rule:evenodd;stroke:#aa0000;stroke-width:1px;stroke-linecap:butt;stroke-linejoin:miter;stroke-opacity:1"
       id="path2987-8-5-4-7-6-3"
       sodipodi:cx="80"
       sodipodi:cy="462.36218"
       sodipodi:rx="10"
       sodipodi:ry="10"
       d="m 90,462.36218 a 10,10 0 1 1 -20,0 10,10 0 1 1 20,0 z" />
    <path
       transform="matrix(0,-1.5,-1.5,0,802.25234,554.72064)"
       sodipodi:type="arc"
       style="fill:#aa0000;fill-rule:evenodd;stroke:#aa0000;stroke-width:1px;stroke-linecap:butt;stroke-linejoin:miter;stroke-opacity:1"
       id="path2987-8-5-4-7-6-5-7"
       sodipodi:cx="80"
       sodipodi:cy="462.36218"
       sodipodi:rx="10"
       sodipodi:ry="10"
       d="m 90,462.36218 a 10,10 0 1 1 -20,0 10,10 0 1 1 20,0 z" />
    <path
       transform="matrix(0,-1.5,-1.5,0,932.69576,553.81478)"
       sodipodi:type="arc"
       style="fill:#aa0000;fill-rule:evenodd;stroke:#aa0000;stroke-width:1px;stroke-linecap:butt;stroke-linejoin:miter;stroke-opacity:1"
       id="path2987-8-5-4-7-6-2-6"
       sodipodi:cx="80"
       sodipodi:cy="462.36218"
       sodipodi:rx="10"
       sodipodi:ry="10"
       d="m 90,462.36218 a 10,10 0 1 1 -20,0 10,10 0 1 1 20,0 z" />
    <path
       transform="matrix(0,-1.5,-1.5,0,1062.2333,554.72065)"
       sodipodi:type="arc"
       style="fill:#00147a;fill-opacity:1;fill-rule:evenodd;stroke:#00147a;stroke-width:1px;stroke-linecap:butt;stroke-linejoin:miter;stroke-opacity:1"
       id="path2987-8-5-4-7-6-0-8"
       sodipodi:cx="80"
       sodipodi:cy="462.36218"
       sodipodi:rx="10"
       sodipodi:ry="10"
       d="m 90,462.36218 a 10,10 0 1 1 -20,0 10,10 0 1 1 20,0 z" />
    <path
       transform="matrix(0,-1.5,-1.5,0,1192.2649,554.70617)"
       sodipodi:type="arc"
       style="fill:#00147a;fill-opacity:1;fill-rule:evenodd;stroke:#00147a;stroke-width:1px;stroke-linecap:butt;stroke-linejoin:miter;stroke-opacity:1"
       id="path2987-8-5-4-7-6-5-9-6"
       sodipodi:cx="80"
       sodipodi:cy="462.36218"
       sodipodi:rx="10"
       sodipodi:ry="10"
       d="m 90,462.36218 a 10,10 0 1 1 -20,0 10,10 0 1 1 20,0 z" />
    <path
       transform="matrix(0,-1.5,-1.5,0,1322.7083,553.80031)"
       sodipodi:type="arc"
       style="fill:#00147a;fill-opacity:1;fill-rule:evenodd;stroke:#00147a;stroke-width:1px;stroke-linecap:butt;stroke-linejoin:miter;stroke-opacity:1"
       id="path2987-8-5-4-7-6-2-4-71"
       sodipodi:cx="80"
       sodipodi:cy="462.36218"
       sodipodi:rx="10"
       sodipodi:ry="10"
       d="m 90,462.36218 a 10,10 0 1 1 -20,0 10,10 0 1 1 20,0 z" />
    <path
       style="color:#000000;fill:#b3b3b3;stroke:#b3b3b3;stroke-width:6;stroke-linecap:round;stroke-linejoin:miter;stroke-miterlimit:4;stroke-opacity:1;stroke-dasharray:none;stroke-dashoffset:0;marker:none;visibility:visible;display:inline;overflow:visible;enable-background:accumulate"
       d="m -20.338983,-12.620868 651.694913,0"
       id="path4949"
       inkscape:connector-curvature="0" />
    <path
       style="color:#000000;fill:none;stroke:#b3b3b3;stroke-width:6;stroke-linecap:round;stroke-linejoin:miter;stroke-miterlimit:4;stroke-opacity:1;stroke-dasharray:none;stroke-dashoffset:0;marker:none;visibility:visible;display:inline;overflow:visible;enable-background:accumulate"
       d="m -19.067794,305.75202 651.694904,0"
       id="path4949-3"
       inkscape:connector-curvature="0" />
    <text
       xml:space="preserve"
       style="font-size:32px;font-style:italic;font-variant:normal;font-weight:normal;font-stretch:normal;line-height:125%;letter-spacing:0px;word-spacing:0px;fill:#000000;fill-opacity:1;stroke:none;font-family:Times New Roman;-inkscape-font-specification:'Times New Roman, Italic'"
       x="73.06749"
       y="446.44196"
       id="text3794"
       sodipodi:linespacing="125%"
       inkscape:transform-center-x="6.5"><tspan
         sodipodi:role="line"
         id="tspan3796"
         x="73.06749"
         y="446.44196" /></text>
    <text
       xml:space="preserve"
       style="font-size:32px;font-style:italic;font-variant:normal;font-weight:normal;font-stretch:normal;line-height:125%;letter-spacing:0px;word-spacing:0px;fill:#000000;fill-opacity:1;stroke:none;font-family:Times New Roman;-inkscape-font-specification:'Times New Roman, Italic'"
       x="201.83374"
       y="446.98636"
       id="text3794-5"
       sodipodi:linespacing="125%"><tspan
         sodipodi:role="line"
         id="tspan3796-0"
         x="201.83374"
         y="446.98636"
         style="font-size:32px;font-style:italic;-inkscape-font-specification:'Times New Roman, Italic'" /></text>
    <text
       xml:space="preserve"
       style="font-size:36px;font-style:normal;font-variant:normal;font-stretch:normal;line-height:125%;letter-spacing:0px;word-spacing:0px;fill:#000000;fill-opacity:1;stroke:none;font-family:URW Gothic L;-inkscape-font-specification:URW Gothic L Book"
       x="-69.491524"
       y="371.00626"
       id="text3417"
       sodipodi:linespacing="125%"><tspan
         sodipodi:role="line"
         id="tspan3419" /></text>
    <path
       transform="matrix(0,-1.5,-1.5,0,674.46406,107.01591)"
       sodipodi:type="arc"
       style="fill:#aa0000;fill-rule:evenodd;stroke:#aa0000;stroke-width:1px;stroke-linecap:butt;stroke-linejoin:miter;stroke-opacity:1"
       id="path2987-8-5-4-7-6"
       sodipodi:cx="80"
       sodipodi:cy="462.36218"
       sodipodi:rx="10"
       sodipodi:ry="10"
       d="m 90,462.36218 a 10,10 0 1 1 -20,0 10,10 0 1 1 20,0 z" />
    <path
       transform="matrix(0,-1.5,-1.5,0,803.86351,107.62949)"
       sodipodi:type="arc"
       style="fill:#aa0000;fill-rule:evenodd;stroke:#aa0000;stroke-width:1px;stroke-linecap:butt;stroke-linejoin:miter;stroke-opacity:1"
       id="path2987-8-5-4-7-6-5"
       sodipodi:cx="80"
       sodipodi:cy="462.36218"
       sodipodi:rx="10"
       sodipodi:ry="10"
       d="m 90,462.36218 a 10,10 0 1 1 -20,0 10,10 0 1 1 20,0 z" />
    <path
       transform="matrix(0,-1.5,-1.5,0,934.30693,106.72363)"
       sodipodi:type="arc"
       style="fill:#aa0000;fill-rule:evenodd;stroke:#aa0000;stroke-width:1px;stroke-linecap:butt;stroke-linejoin:miter;stroke-opacity:1"
       id="path2987-8-5-4-7-6-2"
       sodipodi:cx="80"
       sodipodi:cy="462.36218"
       sodipodi:rx="10"
       sodipodi:ry="10"
       d="m 90,462.36218 a 10,10 0 1 1 -20,0 10,10 0 1 1 20,0 z" />
    <path
       transform="matrix(0,-1.5,-1.5,0,1063.8445,107.6295)"
       sodipodi:type="arc"
       style="fill:#00147a;fill-opacity:1;fill-rule:evenodd;stroke:#00147a;stroke-width:1px;stroke-linecap:butt;stroke-linejoin:miter;stroke-opacity:1"
       id="path2987-8-5-4-7-6-0"
       sodipodi:cx="80"
       sodipodi:cy="462.36218"
       sodipodi:rx="10"
       sodipodi:ry="10"
       d="m 90,462.36218 a 10,10 0 1 1 -20,0 10,10 0 1 1 20,0 z" />
    <path
       transform="matrix(0,-1.5,-1.5,0,1193.876,107.61502)"
       sodipodi:type="arc"
       style="fill:#00147a;fill-opacity:1;fill-rule:evenodd;stroke:#00147a;stroke-width:1px;stroke-linecap:butt;stroke-linejoin:miter;stroke-opacity:1"
       id="path2987-8-5-4-7-6-5-9"
       sodipodi:cx="80"
       sodipodi:cy="462.36218"
       sodipodi:rx="10"
       sodipodi:ry="10"
       d="m 90,462.36218 a 10,10 0 1 1 -20,0 10,10 0 1 1 20,0 z" />
    <path
       transform="matrix(0,-1.5,-1.5,0,1324.3194,106.70916)"
       sodipodi:type="arc"
       style="fill:#00147a;fill-opacity:1;fill-rule:evenodd;stroke:#00147a;stroke-width:1px;stroke-linecap:butt;stroke-linejoin:miter;stroke-opacity:1"
       id="path2987-8-5-4-7-6-2-4"
       sodipodi:cx="80"
       sodipodi:cy="462.36218"
       sodipodi:rx="10"
       sodipodi:ry="10"
       d="m 90,462.36218 a 10,10 0 1 1 -20,0 10,10 0 1 1 20,0 z" />
    <text
       xml:space="preserve"
       style="font-size:36px;font-style:normal;font-variant:normal;font-stretch:normal;line-height:125%;letter-spacing:0px;word-spacing:0px;fill:#000000;fill-opacity:1;stroke:none;font-family:URW Gothic L;-inkscape-font-specification:URW Gothic L Book"
       x="-56.31068"
       y="389.2554"
       id="text4344"
       sodipodi:linespacing="125%"><tspan
         sodipodi:role="line"
         id="tspan4346" /></text>
    <path
       transform="matrix(0,-1.5,-1.5,0,673.70035,426.15418)"
       sodipodi:type="arc"
       style="fill:#aa0000;fill-rule:evenodd;stroke:#aa0000;stroke-width:1px;stroke-linecap:butt;stroke-linejoin:miter;stroke-opacity:1"
       id="path2987-8-5-4-7-6-4"
       sodipodi:cx="80"
       sodipodi:cy="462.36218"
       sodipodi:rx="10"
       sodipodi:ry="10"
       d="m 90,462.36218 a 10,10 0 1 1 -20,0 10,10 0 1 1 20,0 z" />
    <path
       transform="matrix(0,-1.5,-1.5,0,803.09985,426.76776)"
       sodipodi:type="arc"
       style="fill:#aa0000;fill-rule:evenodd;stroke:#aa0000;stroke-width:1px;stroke-linecap:butt;stroke-linejoin:miter;stroke-opacity:1"
       id="path2987-8-5-4-7-6-5-0"
       sodipodi:cx="80"
       sodipodi:cy="462.36218"
       sodipodi:rx="10"
       sodipodi:ry="10"
       d="m 90,462.36218 a 10,10 0 1 1 -20,0 10,10 0 1 1 20,0 z" />
    <path
       transform="matrix(0,-1.5,-1.5,0,933.54325,425.8619)"
       sodipodi:type="arc"
       style="fill:#aa0000;fill-rule:evenodd;stroke:#aa0000;stroke-width:1px;stroke-linecap:butt;stroke-linejoin:miter;stroke-opacity:1"
       id="path2987-8-5-4-7-6-2-0"
       sodipodi:cx="80"
       sodipodi:cy="462.36218"
       sodipodi:rx="10"
       sodipodi:ry="10"
       d="m 90,462.36218 a 10,10 0 1 1 -20,0 10,10 0 1 1 20,0 z" />
    <path
       transform="matrix(0,-1.5,-1.5,0,1063.0807,426.76777)"
       sodipodi:type="arc"
       style="fill:#00147a;fill-rule:evenodd;stroke:#00147a;stroke-width:1px;stroke-linecap:butt;stroke-linejoin:miter;stroke-opacity:1;fill-opacity:1"
       id="path2987-8-5-4-7-6-0-9"
       sodipodi:cx="80"
       sodipodi:cy="462.36218"
       sodipodi:rx="10"
       sodipodi:ry="10"
       d="m 90,462.36218 a 10,10 0 1 1 -20,0 10,10 0 1 1 20,0 z" />
    <path
       transform="matrix(0,-1.5,-1.5,0,1193.1122,426.75329)"
       sodipodi:type="arc"
       style="fill:#00147a;fill-rule:evenodd;stroke:#00147a;stroke-width:1px;stroke-linecap:butt;stroke-linejoin:miter;stroke-opacity:1;fill-opacity:1"
       id="path2987-8-5-4-7-6-5-9-3"
       sodipodi:cx="80"
       sodipodi:cy="462.36218"
       sodipodi:rx="10"
       sodipodi:ry="10"
       d="m 90,462.36218 a 10,10 0 1 1 -20,0 10,10 0 1 1 20,0 z" />
    <path
       transform="matrix(0,-1.5,-1.5,0,1323.5556,425.84743)"
       sodipodi:type="arc"
       style="fill:#00147a;fill-rule:evenodd;stroke:#00147a;stroke-width:1px;stroke-linecap:butt;stroke-linejoin:miter;stroke-opacity:1;fill-opacity:1"
       id="path2987-8-5-4-7-6-2-4-7"
       sodipodi:cx="80"
       sodipodi:cy="462.36218"
       sodipodi:rx="10"
       sodipodi:ry="10"
       d="m 90,462.36218 a 10,10 0 1 1 -20,0 10,10 0 1 1 20,0 z" />
    <path
       style="color:#000000;fill:none;stroke:#000000;stroke-width:6;stroke-linecap:round;stroke-linejoin:miter;stroke-miterlimit:4;stroke-opacity:1;stroke-dasharray:none;stroke-dashoffset:0;marker:none;visibility:visible;display:inline;overflow:visible;enable-background:accumulate"
       d="m -20,-13.637817 c 80,-90.000003 305,-85 390,0"
       id="path3033"
       inkscape:connector-curvature="0"
       sodipodi:nodetypes="cc" />
    <path
       style="color:#000000;fill:none;stroke:#000000;stroke-width:6;stroke-linecap:round;stroke-linejoin:miter;stroke-miterlimit:4;stroke-opacity:1;stroke-dasharray:none;stroke-dashoffset:0;marker:none;visibility:visible;display:inline;overflow:visible;enable-background:accumulate"
       d="m 110,-13.637817 c 0,0 60,-65 130,0"
       id="path3035"
       inkscape:connector-curvature="0" />
    <path
       style="color:#000000;fill:none;stroke:#000000;stroke-width:6;stroke-linecap:round;stroke-linejoin:miter;stroke-miterlimit:4;stroke-opacity:1;stroke-dasharray:none;stroke-dashoffset:0;marker:none;visibility:visible;display:inline;overflow:visible;enable-background:accumulate"
       d="m 500,-13.637817 c 0,0 60.18282,-75.393259 131.61017,0"
       id="path3037"
       inkscape:connector-curvature="0"
       sodipodi:nodetypes="cc" />
    <path
       style="color:#000000;fill:none;stroke:#000000;stroke-width:6;stroke-linecap:round;stroke-linejoin:miter;stroke-miterlimit:4;stroke-opacity:1;stroke-dasharray:none;stroke-dashoffset:0;marker:none;visibility:visible;display:inline;overflow:visible;enable-background:accumulate"
       d="M -19.101124,116.81162 C 4.4943825,90.96892 61.235955,72.991396 111.23596,116.24982"
       id="path3039"
       inkscape:connector-curvature="0"
       sodipodi:nodetypes="cc" />
    <path
       style="color:#000000;fill:none;stroke:#000000;stroke-width:6;stroke-linecap:round;stroke-linejoin:miter;stroke-miterlimit:4;stroke-opacity:1;stroke-dasharray:none;stroke-dashoffset:0;marker:none;visibility:visible;display:inline;overflow:visible;enable-background:accumulate"
       d="m 240.44944,116.81162 c 0,0 58.98876,-62.921347 130.33708,0"
       id="path3041"
       inkscape:connector-curvature="0" />
    <path
       style="color:#000000;fill:none;stroke:#000000;stroke-width:6;stroke-linecap:round;stroke-linejoin:miter;stroke-miterlimit:4;stroke-opacity:1;stroke-dasharray:none;stroke-dashoffset:0;marker:none;visibility:visible;display:inline;overflow:visible;enable-background:accumulate"
       d="m 501.1236,116.81162 c 0,0 60.66462,-64.892401 128.64215,-0.84746"
       id="path3043"
       inkscape:connector-curvature="0"
       sodipodi:nodetypes="cc" />
    <path
       style="color:#000000;fill:none;stroke:#000000;stroke-width:6;stroke-linecap:round;stroke-linejoin:miter;stroke-miterlimit:4;stroke-opacity:1;stroke-dasharray:none;stroke-dashoffset:0;marker:none;visibility:visible;display:inline;overflow:visible;enable-background:accumulate"
       d="M -19.634831,439.05778 C 78.342696,324.33868 204.46629,258.55216 369.24157,306.47351"
       id="path3033-8"
       inkscape:connector-curvature="0"
       sodipodi:nodetypes="cc" />
    <path
       style="color:#000000;fill:none;stroke:#000000;stroke-width:6;stroke-linecap:round;stroke-linejoin:miter;stroke-miterlimit:4;stroke-opacity:1;stroke-dasharray:none;stroke-dashoffset:0;marker:none;visibility:visible;display:inline;overflow:visible;enable-background:accumulate"
       d="m 110.92696,434.5634 c 0,0 60,-65 130,0"
       id="path3035-6"
       inkscape:connector-curvature="0" />
    <path
       style="color:#000000;fill:none;stroke:#000000;stroke-width:6;stroke-linecap:round;stroke-linejoin:miter;stroke-miterlimit:4;stroke-opacity:1;stroke-dasharray:none;stroke-dashoffset:0;marker:none;visibility:visible;display:inline;overflow:visible;enable-background:accumulate"
       d="m 499.24157,304.78812 c 0,0 61.03028,-75.39326 130.76271,0.84746"
       id="path3037-2"
       inkscape:connector-curvature="0"
       sodipodi:nodetypes="cc" />
    <path
       style="color:#000000;fill:none;stroke:#000000;stroke-width:6;stroke-linecap:round;stroke-linejoin:miter;stroke-miterlimit:4;stroke-opacity:1;stroke-dasharray:none;stroke-dashoffset:0;marker:none;visibility:visible;display:inline;overflow:visible;enable-background:accumulate"
       d="M -20.421349,306.02407 C 3.1741572,280.18137 59.91573,262.20385 109.91573,305.46227"
       id="path3039-5"
       inkscape:connector-curvature="0"
       sodipodi:nodetypes="cc" />
    <path
       style="color:#000000;fill:none;stroke:#000000;stroke-width:6;stroke-linecap:round;stroke-linejoin:miter;stroke-miterlimit:4;stroke-opacity:1;stroke-dasharray:none;stroke-dashoffset:0;marker:none;visibility:visible;display:inline;overflow:visible;enable-background:accumulate"
       d="m 240.25281,305.46227 c 0,0 61.23595,62.35956 129.77528,129.77528"
       id="path3041-1"
       inkscape:connector-curvature="0"
       sodipodi:nodetypes="cc" />
    <path
       style="color:#000000;fill:none;stroke:#000000;stroke-width:6;stroke-linecap:round;stroke-linejoin:miter;stroke-miterlimit:4;stroke-opacity:1;stroke-dasharray:none;stroke-dashoffset:0;marker:none;visibility:visible;display:inline;overflow:visible;enable-background:accumulate"
       d="m 498.67025,432.69518 c 0,0 62.35954,-64.8924 130.33707,0"
       id="path3043-3"
       inkscape:connector-curvature="0"
       sodipodi:nodetypes="cc" />
  </g>
</svg>
